<svg xmlns="http://www.w3.org/2000/svg" width="1200" height="720" viewBox="0 0 1200 720">
<rect x="0" y="0" width="1200" height="720" fill="#ffffff"/>
<text x="90" y="44" font-family="Helvetica, Arial, sans-serif" font-size="28" font-weight="700" fill="#243040" text-anchor="start">Figure 1. Q1(d) vs Q1(g) Wealth Paths</text>
<text x="90" y="72" font-family="Helvetica, Arial, sans-serif" font-size="14" font-weight="400" fill="#6b7280" text-anchor="start">Normalized wealth over each evaluation window; x-axis is trading-day progress within the window.</text>
<line x1="90" y1="640.0" x2="1160" y2="640.0" stroke="#d7dde5" stroke-width="1"/>
<text x="78" y="645.0" font-family="Helvetica, Arial, sans-serif" font-size="12" font-weight="400" fill="#6b7280" text-anchor="end">0.82</text>
<line x1="90" y1="507.5" x2="1160" y2="507.5" stroke="#d7dde5" stroke-width="1"/>
<text x="78" y="512.5" font-family="Helvetica, Arial, sans-serif" font-size="12" font-weight="400" fill="#6b7280" text-anchor="end">1.18</text>
<line x1="90" y1="375.0" x2="1160" y2="375.0" stroke="#d7dde5" stroke-width="1"/>
<text x="78" y="380.0" font-family="Helvetica, Arial, sans-serif" font-size="12" font-weight="400" fill="#6b7280" text-anchor="end">1.55</text>
<line x1="90" y1="242.49999999999994" x2="1160" y2="242.49999999999994" stroke="#d7dde5" stroke-width="1"/>
<text x="78" y="247.49999999999994" font-family="Helvetica, Arial, sans-serif" font-size="12" font-weight="400" fill="#6b7280" text-anchor="end">1.91</text>
<line x1="90" y1="110.0" x2="1160" y2="110.0" stroke="#d7dde5" stroke-width="1"/>
<text x="78" y="115.0" font-family="Helvetica, Arial, sans-serif" font-size="12" font-weight="400" fill="#6b7280" text-anchor="end">2.28</text>
<line x1="90.0" y1="110" x2="90.0" y2="640" stroke="#d7dde5" stroke-width="1"/>
<text x="90.0" y="666" font-family="Helvetica, Arial, sans-serif" font-size="12" font-weight="400" fill="#6b7280" text-anchor="middle">0</text>
<line x1="357.5" y1="110" x2="357.5" y2="640" stroke="#d7dde5" stroke-width="1"/>
<text x="357.5" y="666" font-family="Helvetica, Arial, sans-serif" font-size="12" font-weight="400" fill="#6b7280" text-anchor="middle">25%</text>
<line x1="625.0" y1="110" x2="625.0" y2="640" stroke="#d7dde5" stroke-width="1"/>
<text x="625.0" y="666" font-family="Helvetica, Arial, sans-serif" font-size="12" font-weight="400" fill="#6b7280" text-anchor="middle">50%</text>
<line x1="892.5" y1="110" x2="892.5" y2="640" stroke="#d7dde5" stroke-width="1"/>
<text x="892.5" y="666" font-family="Helvetica, Arial, sans-serif" font-size="12" font-weight="400" fill="#6b7280" text-anchor="middle">75%</text>
<line x1="1160.0" y1="110" x2="1160.0" y2="640" stroke="#d7dde5" stroke-width="1"/>
<text x="1160.0" y="666" font-family="Helvetica, Arial, sans-serif" font-size="12" font-weight="400" fill="#6b7280" text-anchor="middle">100%</text>
<line x1="90" y1="110" x2="90" y2="640" stroke="#5f6975" stroke-width="1.5"/>
<line x1="90" y1="640" x2="1160" y2="640" stroke="#5f6975" stroke-width="1.5"/>
<polyline points="90.00,570.71 91.42,572.66 92.84,572.07 94.26,574.19 95.68,574.49 97.10,574.38 98.51,575.41 99.93,574.53 101.35,575.99 102.77,580.96 104.19,580.34 105.61,579.90 107.03,578.96 108.45,578.54 109.87,581.04 111.29,580.46 112.71,576.76 114.12,578.60 115.54,581.63 116.96,580.21 118.38,580.76 119.80,582.10 121.22,583.12 122.64,586.38 124.06,586.22 125.48,586.91 126.90,585.64 128.32,588.58 129.73,588.32 131.15,591.01 132.57,591.35 133.99,593.01 135.41,595.22 136.83,594.34 138.25,593.57 139.67,589.36 141.09,588.56 142.51,589.97 143.93,589.48 145.34,586.92 146.76,586.30 148.18,585.04 149.60,584.78 151.02,583.54 152.44,579.61 153.86,579.04 155.28,581.89 156.70,583.76 158.12,582.26 159.54,584.28 160.95,585.13 162.37,585.64 163.79,588.17 165.21,586.09 166.63,583.59 168.05,583.26 169.47,584.48 170.89,586.89 172.31,590.23 173.73,589.87 175.15,588.97 176.56,588.96 177.98,586.38 179.40,586.37 180.82,587.94 182.24,586.73 183.66,586.07 185.08,579.16 186.50,576.45 187.92,574.86 189.34,574.66 190.76,574.94 192.18,579.31 193.59,575.72 195.01,579.63 196.43,580.80 197.85,579.82 199.27,579.62 200.69,582.63 202.11,578.59 203.53,581.24 204.95,579.99 206.37,579.52 207.79,579.15 209.20,579.45 210.62,581.00 212.04,582.04 213.46,581.24 214.88,581.78 216.30,584.41 217.72,586.86 219.14,585.70 220.56,587.15 221.98,584.35 223.40,584.85 224.81,581.85 226.23,581.60 227.65,585.04 229.07,586.02 230.49,587.76 231.91,590.87 233.33,587.48 234.75,585.17 236.17,583.43 237.59,585.99 239.01,586.55 240.42,585.46 241.84,588.06 243.26,587.82 244.68,587.49 246.10,587.12 247.52,588.64 248.94,589.89 250.36,589.64 251.78,592.51 253.20,597.17 254.62,595.64 256.03,597.50 257.45,599.59 258.87,601.56 260.29,603.37 261.71,604.13 263.13,600.73 264.55,599.04 265.97,597.06 267.39,597.37 268.81,598.63 270.23,597.00 271.64,596.56 273.06,598.39 274.48,600.86 275.90,602.45 277.32,603.75 278.74,606.64 280.16,605.26 281.58,606.40 283.00,610.76 284.42,615.91 285.84,613.56 287.25,611.97 288.67,608.45 290.09,605.42 291.51,602.24 292.93,602.57 294.35,604.25 295.77,606.07 297.19,610.83 298.61,608.62 300.03,608.35 301.45,605.03 302.86,604.10 304.28,604.03 305.70,605.41 307.12,605.28 308.54,605.11 309.96,603.93 311.38,601.71 312.80,604.42 314.22,604.22 315.64,603.48 317.06,599.82 318.47,594.85 319.89,594.80 321.31,595.62 322.73,597.48 324.15,597.19 325.57,597.94 326.99,596.04 328.41,598.40 329.83,589.75 331.25,589.30 332.67,591.46 334.08,589.93 335.50,586.32 336.92,593.50 338.34,589.86 339.76,586.89 341.18,586.85 342.60,586.36 344.02,585.52 345.44,585.62 346.86,580.82 348.28,582.50 349.69,581.51 351.11,582.52 352.53,581.89 353.95,584.81 355.37,585.65 356.79,587.01 358.21,585.23 359.63,588.44 361.05,589.53 362.47,586.99 363.89,586.97 365.31,586.20 366.72,585.90 368.14,587.58 369.56,585.78 370.98,584.64 372.40,585.16 373.82,585.87 375.24,587.05 376.66,584.03 378.08,585.19 379.50,587.65 380.92,583.66 382.33,583.87 383.75,584.11 385.17,585.34 386.59,582.92 388.01,587.55 389.43,587.45 390.85,583.65 392.27,583.87 393.69,582.28 395.11,580.97 396.53,579.75 397.94,577.52 399.36,580.05 400.78,580.32 402.20,580.60 403.62,580.61 405.04,580.25 406.46,579.47 407.88,580.62 409.30,577.37 410.72,576.33 412.14,575.49 413.55,571.98 414.97,569.72 416.39,572.27 417.81,574.31 419.23,575.59 420.65,573.60 422.07,573.46 423.49,571.97 424.91,571.93 426.33,573.46 427.75,573.69 429.16,573.85 430.58,570.16 432.00,568.18 433.42,569.95 434.84,570.94 436.26,572.36 437.68,573.39 439.10,572.24 440.52,573.42 441.94,572.11 443.36,576.72 444.77,579.47 446.19,583.17 447.61,584.07 449.03,585.46 450.45,586.04 451.87,585.00 453.29,581.78 454.71,580.45 456.13,581.72 457.55,580.48 458.97,583.39 460.38,584.76 461.80,583.52 463.22,588.45 464.64,584.17 466.06,583.38 467.48,583.15 468.90,582.49 470.32,580.95 471.74,581.10 473.16,577.91 474.58,577.26 475.99,575.21 477.41,574.45 478.83,573.24 480.25,571.17 481.67,570.81 483.09,572.15 484.51,571.86 485.93,571.23 487.35,577.12 488.77,578.85 490.19,583.09 491.60,585.63 493.02,585.63 494.44,581.27 495.86,579.78 497.28,580.04 498.70,582.30 500.12,581.44 501.54,581.49 502.96,581.40 504.38,582.04 505.80,582.40 507.21,583.35 508.63,583.92 510.05,582.05 511.47,581.31 512.89,579.44 514.31,577.86 515.73,574.41 517.15,576.46 518.57,577.58 519.99,579.81 521.41,580.19 522.82,579.52 524.24,581.90 525.66,581.94 527.08,579.79 528.50,580.29 529.92,578.73 531.34,574.15 532.76,572.92 534.18,571.22 535.60,572.84 537.02,568.14 538.44,560.30 539.85,562.74 541.27,564.28 542.69,565.24 544.11,567.38 545.53,561.27 546.95,555.53 548.37,547.77 549.79,550.13 551.21,549.57 552.63,552.39 554.05,549.28 555.46,547.76 556.88,556.35 558.30,557.97 559.72,559.63 561.14,555.07 562.56,554.12 563.98,554.93 565.40,551.92 566.82,551.99 568.24,550.13 569.66,548.38 571.07,545.65 572.49,544.57 573.91,544.13 575.33,545.05 576.75,542.07 578.17,541.50 579.59,541.97 581.01,540.93 582.43,539.50 583.85,537.12 585.27,536.68 586.68,538.40 588.10,539.35 589.52,542.94 590.94,541.24 592.36,538.18 593.78,541.21 595.20,539.67 596.62,536.99 598.04,532.98 599.46,533.05 600.88,534.32 602.29,533.18 603.71,533.98 605.13,534.05 606.55,532.90 607.97,537.27 609.39,535.03 610.81,533.97 612.23,532.97 613.65,529.69 615.07,531.18 616.49,529.90 617.90,526.10 619.32,528.43 620.74,526.83 622.16,521.80 623.58,522.24 625.00,519.63 626.42,518.15 627.84,515.55 629.26,514.08 630.68,512.04 632.10,512.22 633.51,517.17 634.93,517.50 636.35,516.69 637.77,521.04 639.19,524.81 640.61,524.56 642.03,525.56 643.45,525.99 644.87,526.40 646.29,527.44 647.71,527.11 649.12,524.02 650.54,524.63 651.96,526.03 653.38,525.98 654.80,523.66 656.22,526.59 657.64,527.53 659.06,529.91 660.48,534.01 661.90,529.87 663.32,530.27 664.73,529.31 666.15,525.02 667.57,522.85 668.99,521.41 670.41,521.76 671.83,520.22 673.25,519.88 674.67,519.86 676.09,522.70 677.51,525.43 678.93,525.30 680.34,524.88 681.76,523.55 683.18,525.01 684.60,528.49 686.02,529.12 687.44,529.24 688.86,531.28 690.28,530.67 691.70,538.85 693.12,540.91 694.54,537.89 695.95,537.78 697.37,535.16 698.79,535.88 700.21,537.40 701.63,541.84 703.05,539.38 704.47,538.61 705.89,536.84 707.31,539.13 708.73,537.40 710.15,539.60 711.56,545.19 712.98,539.52 714.40,537.31 715.82,534.12 717.24,529.75 718.66,529.38 720.08,525.64 721.50,528.78 722.92,525.58 724.34,527.07 725.76,519.87 727.18,524.01 728.59,522.97 730.01,518.44 731.43,524.33 732.85,525.25 734.27,528.53 735.69,525.12 737.11,527.58 738.53,529.63 739.95,529.75 741.37,526.33 742.79,531.05 744.20,527.83 745.62,537.67 747.04,537.54 748.46,533.54 749.88,530.49 751.30,527.92 752.72,525.68 754.14,523.37 755.56,528.33 756.98,527.79 758.40,523.26 759.81,521.85 761.23,525.44 762.65,525.80 764.07,526.43 765.49,520.82 766.91,519.00 768.33,524.75 769.75,530.65 771.17,532.70 772.59,531.31 774.01,523.30 775.42,526.54 776.84,526.62 778.26,527.00 779.68,527.05 781.10,523.95 782.52,528.61 783.94,527.84 785.36,527.34 786.78,527.77 788.20,525.02 789.62,534.49 791.03,531.12 792.45,531.86 793.87,547.63 795.29,551.89 796.71,559.19 798.13,546.48 799.55,553.83 800.97,545.76 802.39,541.32 803.81,546.39 805.23,551.14 806.64,547.40 808.06,550.89 809.48,545.40 810.90,548.60 812.32,550.02 813.74,550.55 815.16,548.28 816.58,545.53 818.00,543.30 819.42,547.20 820.84,543.19 822.25,545.14 823.67,548.06 825.09,545.95 826.51,550.54 827.93,552.27 829.35,546.87 830.77,553.14 832.19,559.86 833.61,551.58 835.03,546.72 836.45,545.87 837.86,543.96 839.28,546.79 840.70,547.93 842.12,548.50 843.54,544.48 844.96,547.31 846.38,543.96 847.80,541.51 849.22,539.08 850.64,539.18 852.06,540.84 853.47,541.46 854.89,538.08 856.31,536.59 857.73,533.43 859.15,536.91 860.57,529.49 861.99,529.15 863.41,528.26 864.83,534.52 866.25,535.06 867.67,536.80 869.08,535.26 870.50,532.42 871.92,536.57 873.34,535.82 874.76,535.12 876.18,533.09 877.60,524.91 879.02,522.28 880.44,522.38 881.86,525.96 883.28,524.34 884.69,522.34 886.11,519.32 887.53,522.98 888.95,521.23 890.37,526.11 891.79,515.25 893.21,508.83 894.63,511.93 896.05,512.96 897.47,505.34 898.89,494.80 900.31,500.75 901.72,498.97 903.14,504.06 904.56,500.40 905.98,502.69 907.40,512.14 908.82,510.42 910.24,504.80 911.66,502.67 913.08,504.13 914.50,500.01 915.92,496.31 917.33,496.19 918.75,494.13 920.17,487.82 921.59,488.95 923.01,484.09 924.43,486.38 925.85,484.18 927.27,481.69 928.69,482.00 930.11,479.31 931.53,482.78 932.94,483.64 934.36,481.62 935.78,484.90 937.20,482.59 938.62,479.96 940.04,483.51 941.46,483.98 942.88,480.98 944.30,485.12 945.72,485.74 947.14,480.69 948.55,476.22 949.97,480.72 951.39,483.58 952.81,487.16 954.23,485.67 955.65,487.81 957.07,487.36 958.49,488.32 959.91,487.23 961.33,488.07 962.75,491.78 964.16,487.53 965.58,487.74 967.00,482.69 968.42,474.88 969.84,477.59 971.26,474.96 972.68,475.39 974.10,476.61 975.52,477.61 976.94,474.77 978.36,473.63 979.77,472.56 981.19,470.33 982.61,469.48 984.03,468.30 985.45,467.85 986.87,468.45 988.29,471.23 989.71,470.94 991.13,472.66 992.55,475.64 993.97,476.21 995.38,482.01 996.80,483.61 998.22,477.02 999.64,476.69 1001.06,479.05 1002.48,480.42 1003.90,477.74 1005.32,478.34 1006.74,476.56 1008.16,473.15 1009.58,463.60 1010.99,461.89 1012.41,463.12 1013.83,466.20 1015.25,465.20 1016.67,463.45 1018.09,465.11 1019.51,469.81 1020.93,467.41 1022.35,463.22 1023.77,459.01 1025.19,455.58 1026.60,455.40 1028.02,456.63 1029.44,460.07 1030.86,454.97 1032.28,454.44 1033.70,455.52 1035.12,456.49 1036.54,457.84 1037.96,448.73 1039.38,445.05 1040.80,443.23 1042.21,437.77 1043.63,443.59 1045.05,443.17 1046.47,445.48 1047.89,443.77 1049.31,442.68 1050.73,446.57 1052.15,444.22 1053.57,444.19 1054.99,446.51 1056.41,447.51 1057.82,449.85 1059.24,449.14 1060.66,450.93 1062.08,446.68 1063.50,444.51 1064.92,446.52 1066.34,447.21 1067.76,441.66 1069.18,439.66 1070.60,432.56 1072.02,428.49 1073.44,430.80 1074.85,432.67 1076.27,430.39 1077.69,428.94 1079.11,428.57 1080.53,424.90 1081.95,419.11 1083.37,419.33 1084.79,419.28 1086.21,419.07 1087.63,412.58 1089.05,404.93 1090.46,397.38 1091.88,396.81 1093.30,387.45 1094.72,390.34 1096.14,390.52 1097.56,385.53 1098.98,386.27 1100.40,383.43 1101.82,389.51 1103.24,385.80 1104.66,383.41 1106.07,386.59 1107.49,381.93 1108.91,377.36 1110.33,379.49 1111.75,381.82 1113.17,371.74 1114.59,373.18 1116.01,381.09 1117.43,380.39 1118.85,389.54 1120.27,390.18 1121.68,388.57 1123.10,389.40 1124.52,388.68 1125.94,392.48 1127.36,394.98 1128.78,394.19 1130.20,397.66 1131.62,404.84 1133.04,410.53 1134.46,419.08 1135.88,417.86 1137.29,415.67 1138.71,408.86 1140.13,410.28 1141.55,410.83 1142.97,405.19 1144.39,398.41 1145.81,393.07 1147.23,397.19 1148.65,398.80 1150.07,405.81 1151.49,397.53 1152.90,395.52 1154.32,400.35" fill="none" stroke="#1756a9" stroke-width="3" stroke-linejoin="round" stroke-linecap="round"/>
<polyline points="90.00,554.94 91.42,565.00 92.84,565.19 94.26,555.84 95.68,560.87 97.10,568.71 98.51,563.12 99.93,560.74 101.35,557.41 102.77,553.84 104.19,558.22 105.61,547.05 107.03,548.97 108.45,559.25 109.87,556.41 111.29,555.65 112.71,559.40 114.12,554.50 115.54,548.17 116.96,547.41 118.38,555.45 119.80,565.35 121.22,564.98 122.64,557.99 124.06,546.59 125.48,552.04 126.90,548.74 128.32,550.55 129.73,551.02 131.15,549.66 132.57,544.75 133.99,544.09 135.41,543.80 136.83,544.78 138.25,540.70 139.67,537.81 141.09,538.18 142.51,525.45 143.93,510.19 145.34,516.07 146.76,518.73 148.18,542.16 149.60,536.25 151.02,537.26 152.44,528.82 153.86,534.86 155.28,535.05 156.70,535.44 158.12,534.31 159.54,533.46 160.95,544.73 162.37,540.75 163.79,550.22 165.21,545.45 166.63,541.69 168.05,541.56 169.47,539.42 170.89,533.22 172.31,538.23 173.73,537.30 175.15,542.76 176.56,537.02 177.98,538.73 179.40,534.91 180.82,528.32 182.24,529.99 183.66,531.19 185.08,530.00 186.50,526.78 187.92,524.49 189.34,526.81 190.76,526.31 192.18,522.69 193.59,527.85 195.01,523.10 196.43,525.76 197.85,528.63 199.27,524.85 200.69,522.73 202.11,521.12 203.53,521.17 204.95,522.82 206.37,521.71 207.79,526.72 209.20,520.62 210.62,522.88 212.04,518.09 213.46,513.84 214.88,517.92 216.30,521.71 217.72,521.46 219.14,523.21 220.56,519.69 221.98,518.55 223.40,516.24 224.81,513.54 226.23,509.99 227.65,513.53 229.07,514.58 230.49,509.95 231.91,519.93 233.33,523.59 234.75,531.45 236.17,526.03 237.59,533.44 239.01,530.97 240.42,527.28 241.84,525.29 243.26,525.55 244.68,528.53 246.10,532.16 247.52,540.55 248.94,539.25 250.36,544.95 251.78,544.06 253.20,539.31 254.62,534.33 256.03,537.37 257.45,533.89 258.87,532.83 260.29,535.72 261.71,528.83 263.13,536.12 264.55,532.05 265.97,526.32 267.39,525.20 268.81,521.08 270.23,523.51 271.64,523.89 273.06,525.18 274.48,526.23 275.90,533.76 277.32,531.76 278.74,532.16 280.16,527.48 281.58,521.37 283.00,524.90 284.42,528.17 285.84,541.95 287.25,538.18 288.67,540.07 290.09,531.57 291.51,524.26 292.93,523.00 294.35,516.69 295.77,516.03 297.19,504.82 298.61,500.45 300.03,500.72 301.45,504.58 302.86,496.00 304.28,488.75 305.70,490.85 307.12,490.51 308.54,492.62 309.96,494.53 311.38,490.62 312.80,482.04 314.22,482.74 315.64,477.65 317.06,482.89 318.47,478.77 319.89,475.27 321.31,477.06 322.73,469.95 324.15,471.77 325.57,469.12 326.99,469.67 328.41,469.35 329.83,470.69 331.25,475.37 332.67,472.62 334.08,471.95 335.50,468.54 336.92,469.00 338.34,473.66 339.76,478.76 341.18,476.79 342.60,477.11 344.02,475.10 345.44,475.01 346.86,471.25 348.28,468.44 349.69,471.95 351.11,466.51 352.53,461.58 353.95,456.03 355.37,453.91 356.79,454.60 358.21,450.51 359.63,449.33 361.05,448.64 362.47,451.61 363.89,446.65 365.31,442.04 366.72,448.52 368.14,447.88 369.56,445.62 370.98,440.38 372.40,447.13 373.82,445.17 375.24,456.53 376.66,444.64 378.08,437.48 379.50,433.44 380.92,428.69 382.33,426.04 383.75,422.54 385.17,423.85 386.59,424.39 388.01,426.51 389.43,422.80 390.85,424.60 392.27,422.78 393.69,427.48 395.11,429.46 396.53,429.74 397.94,428.66 399.36,423.09 400.78,433.50 402.20,440.19 403.62,433.43 405.04,435.77 406.46,440.91 407.88,444.65 409.30,433.76 410.72,434.02 412.14,431.93 413.55,426.39 414.97,422.80 416.39,421.98 417.81,419.15 419.23,421.01 420.65,418.06 422.07,425.12 423.49,424.38 424.91,423.73 426.33,427.52 427.75,429.03 429.16,425.76 430.58,415.69 432.00,415.80 433.42,418.73 434.84,416.99 436.26,411.48 437.68,407.89 439.10,407.65 440.52,406.52 441.94,407.54 443.36,408.18 444.77,408.59 446.19,411.02 447.61,408.78 449.03,405.76 450.45,404.31 451.87,403.54 453.29,402.85 454.71,395.40 456.13,398.42 457.55,394.04 458.97,401.60 460.38,402.30 461.80,405.31 463.22,403.89 464.64,409.28 466.06,401.93 467.48,403.19 468.90,402.26 470.32,399.80 471.74,392.28 473.16,390.35 474.58,393.36 475.99,401.42 477.41,396.41 478.83,390.86 480.25,387.14 481.67,392.62 483.09,393.48 484.51,390.26 485.93,389.58 487.35,388.64 488.77,393.19 490.19,392.13 491.60,391.40 493.02,391.49 494.44,390.80 495.86,390.45 497.28,388.33 498.70,385.82 500.12,386.32 501.54,385.12 502.96,378.61 504.38,376.20 505.80,375.79 507.21,377.78 508.63,378.09 510.05,382.90 511.47,384.35 512.89,394.46 514.31,384.82 515.73,381.86 517.15,382.38 518.57,379.08 519.99,376.77 521.41,382.66 522.82,382.11 524.24,378.03 525.66,373.47 527.08,369.98 528.50,375.39 529.92,371.57 531.34,375.13 532.76,366.26 534.18,367.59 535.60,367.87 537.02,366.81 538.44,370.22 539.85,376.02 541.27,383.11 542.69,375.03 544.11,370.05 545.53,367.75 546.95,362.23 548.37,358.04 549.79,357.19 551.21,357.12 552.63,352.65 554.05,356.79 555.46,359.01 556.88,356.25 558.30,360.48 559.72,358.99 561.14,357.01 562.56,359.69 563.98,357.44 565.40,353.50 566.82,350.66 568.24,349.91 569.66,347.19 571.07,347.66 572.49,354.30 573.91,353.02 575.33,347.41 576.75,343.49 578.17,345.53 579.59,344.95 581.01,350.35 582.43,343.62 583.85,344.07 585.27,341.46 586.68,339.64 588.10,334.33 589.52,334.04 590.94,337.33 592.36,336.21 593.78,341.65 595.20,345.42 596.62,342.74 598.04,343.48 599.46,335.06 600.88,335.18 602.29,339.61 603.71,348.38 605.13,347.86 606.55,342.95 607.97,337.72 609.39,335.53 610.81,334.06 612.23,341.06 613.65,336.88 615.07,340.08 616.49,330.15 617.90,331.60 619.32,328.21 620.74,327.57 622.16,321.04 623.58,319.94 625.00,320.51 626.42,323.36 627.84,322.66 629.26,316.38 630.68,314.04 632.10,311.16 633.51,308.38 634.93,307.51 636.35,309.75 637.77,308.86 639.19,305.09 640.61,299.25 642.03,304.00 643.45,302.88 644.87,302.53 646.29,302.22 647.71,298.71 649.12,290.60 650.54,291.01 651.96,289.06 653.38,289.93 654.80,292.04 656.22,296.11 657.64,295.82 659.06,290.82 660.48,293.74 661.90,294.82 663.32,295.26 664.73,296.11 666.15,297.78 667.57,298.02 668.99,291.63 670.41,295.57 671.83,307.33 673.25,304.55 674.67,318.13 676.09,322.04 677.51,315.14 678.93,316.39 680.34,306.43 681.76,299.88 683.18,296.26 684.60,299.57 686.02,295.42 687.44,295.43 688.86,294.01 690.28,282.93 691.70,283.07 693.12,288.70 694.54,292.29 695.95,283.80 697.37,276.69 698.79,274.34 700.21,265.61 701.63,264.64 703.05,262.82 704.47,262.78 705.89,263.80 707.31,258.57 708.73,255.42 710.15,264.02 711.56,264.30 712.98,261.34 714.40,262.43 715.82,259.18 717.24,257.50 718.66,263.73 720.08,258.64 721.50,265.40 722.92,267.03 724.34,276.45 725.76,287.99 727.18,286.37 728.59,285.80 730.01,284.78 731.43,280.63 732.85,269.85 734.27,269.42 735.69,262.97 737.11,259.03 738.53,265.69 739.95,263.66 741.37,265.37 742.79,262.50 744.20,259.28 745.62,267.94 747.04,269.98 748.46,274.45 749.88,268.56 751.30,268.72 752.72,274.73 754.14,278.75 755.56,284.39 756.98,288.29 758.40,285.96 759.81,270.13 761.23,271.06 762.65,270.74 764.07,259.21 765.49,256.73 766.91,254.83 768.33,264.76 769.75,273.27 771.17,264.25 772.59,258.85 774.01,266.54 775.42,270.44 776.84,256.53 778.26,254.35 779.68,243.15 781.10,237.59 782.52,233.84 783.94,231.86 785.36,232.58 786.78,226.04 788.20,220.56 789.62,219.30 791.03,214.91 792.45,214.24 793.87,219.28 795.29,214.17 796.71,214.59 798.13,215.65 799.55,214.27 800.97,211.89 802.39,208.08 803.81,216.43 805.23,212.74 806.64,206.05 808.06,211.25 809.48,213.59 810.90,205.75 812.32,208.13 813.74,220.43 815.16,236.48 816.58,231.93 818.00,239.25 819.42,226.96 820.84,214.12 822.25,234.80 823.67,236.08 825.09,229.56 826.51,211.79 827.93,228.88 829.35,228.25 830.77,248.40 832.19,244.69 833.61,243.03 835.03,242.04 836.45,227.45 837.86,223.72 839.28,215.43 840.70,242.79 842.12,244.33 843.54,241.47 844.96,227.07 846.38,226.12 847.80,222.25 849.22,217.51 850.64,207.20 852.06,213.48 853.47,216.45 854.89,208.42 856.31,215.24 857.73,216.03 859.15,208.22 860.57,213.99 861.99,228.19 863.41,238.48 864.83,260.21 866.25,264.48 867.67,256.35 869.08,269.87 870.50,271.17 871.92,251.65 873.34,252.21 874.76,246.83 876.18,229.46 877.60,223.00 879.02,237.10 880.44,237.05 881.86,240.38 883.28,230.37 884.69,234.86 886.11,233.39 887.53,223.86 888.95,218.81 890.37,225.45 891.79,234.89 893.21,232.13 894.63,235.71 896.05,225.60 897.47,231.95 898.89,223.48 900.31,221.48 901.72,220.42 903.14,226.34 904.56,216.38 905.98,218.88 907.40,203.08 908.82,201.17 910.24,197.70 911.66,196.55 913.08,201.06 914.50,194.16 915.92,198.11 917.33,194.49 918.75,196.59 920.17,195.84 921.59,182.53 923.01,181.54 924.43,175.25 925.85,173.00 927.27,168.41 928.69,169.84 930.11,165.67 931.53,165.45 932.94,171.59 934.36,174.45 935.78,172.79 937.20,165.20 938.62,181.98 940.04,182.54 941.46,191.57 942.88,191.37 944.30,191.16 945.72,193.70 947.14,197.99 948.55,188.43 949.97,187.27 951.39,179.79 952.81,177.18 954.23,202.26 955.65,192.79 957.07,200.32 958.49,201.05 959.91,195.79 961.33,203.40 962.75,211.21 964.16,209.78 965.58,223.12 967.00,229.51 968.42,224.76 969.84,205.61 971.26,216.95 972.68,228.02 974.10,217.06 975.52,199.89 976.94,202.25 978.36,208.79 979.77,224.59 981.19,225.98 982.61,228.83 984.03,225.30 985.45,207.93 986.87,220.99 988.29,206.22 989.71,199.96 991.13,201.33 992.55,203.67 993.97,190.50 995.38,181.63 996.80,173.24 998.22,179.77 999.64,179.26 1001.06,165.42 1002.48,170.20 1003.90,172.68 1005.32,187.53 1006.74,187.24 1008.16,178.98 1009.58,171.70 1010.99,169.87 1012.41,187.06 1013.83,166.26 1015.25,178.02 1016.67,173.97 1018.09,168.21 1019.51,168.28 1020.93,165.29 1022.35,164.57 1023.77,159.61 1025.19,149.38 1026.60,147.50 1028.02,148.19 1029.44,156.14 1030.86,153.38 1032.28,134.09 1033.70,137.52 1035.12,136.03 1036.54,146.06 1037.96,158.97 1039.38,158.04 1040.80,156.11 1042.21,164.49 1043.63,156.72 1045.05,154.02 1046.47,154.84 1047.89,166.74 1049.31,169.67 1050.73,171.48 1052.15,166.97 1053.57,160.24 1054.99,168.42 1056.41,163.27 1057.82,170.88 1059.24,181.83 1060.66,177.06 1062.08,180.17 1063.50,183.33 1064.92,181.29 1066.34,187.54 1067.76,173.05 1069.18,180.31 1070.60,180.83 1072.02,176.71 1073.44,173.47 1074.85,169.86 1076.27,169.51 1077.69,180.17 1079.11,182.59 1080.53,172.81 1081.95,169.89 1083.37,168.37 1084.79,168.20 1086.21,164.14 1087.63,167.02 1089.05,170.55 1090.46,160.51 1091.88,156.83 1093.30,154.07 1094.72,158.50 1096.14,160.73 1097.56,155.52 1098.98,159.07 1100.40,163.59 1101.82,155.84 1103.24,150.93 1104.66,153.64 1106.07,156.27 1107.49,162.65 1108.91,161.92 1110.33,173.83 1111.75,173.84 1113.17,173.52 1114.59,182.32 1116.01,180.98 1117.43,187.46 1118.85,189.14 1120.27,184.93 1121.68,180.19 1123.10,181.10 1124.52,189.18 1125.94,190.20 1127.36,200.11 1128.78,207.88 1130.20,208.65 1131.62,201.33 1133.04,203.33 1134.46,190.85 1135.88,196.50 1137.29,188.19 1138.71,182.54 1140.13,195.23 1141.55,195.59 1142.97,185.78 1144.39,182.59 1145.81,183.10 1147.23,172.04 1148.65,169.28 1150.07,161.68 1151.49,152.94 1152.90,157.01 1154.32,146.68 1155.74,145.63 1157.16,146.91 1158.58,145.90 1160.00,147.56" fill="none" stroke="#2d8f5b" stroke-width="3" stroke-linejoin="round" stroke-linecap="round"/>
<line x1="110" y1="692" x2="140" y2="692" stroke="#1756a9" stroke-width="4"/>
<text x="150" y="697" font-family="Helvetica, Arial, sans-serif" font-size="14" font-weight="400" fill="#243040" text-anchor="start">Q1(d) True Out-of-Sample</text>
<line x1="360" y1="692" x2="390" y2="692" stroke="#2d8f5b" stroke-width="4"/>
<text x="400" y="697" font-family="Helvetica, Arial, sans-serif" font-size="14" font-weight="400" fill="#243040" text-anchor="start">Q1(g) Hypothetical Out-of-Sample</text>
</svg>