<svg xmlns="http://www.w3.org/2000/svg" width="1200" height="720" viewBox="0 0 1200 720">
<rect x="0" y="0" width="1200" height="720" fill="#ffffff"/>
<text x="90" y="44" font-family="Helvetica, Arial, sans-serif" font-size="28" font-weight="700" fill="#243040" text-anchor="start">Figure 2. Q1(j) Hedge Comparison</text>
<text x="90" y="72" font-family="Helvetica, Arial, sans-serif" font-size="14" font-weight="400" fill="#6b7280" text-anchor="start">Hedge ratios estimated from the first window: SPY -0.48222, VOO -0.48297.</text>
<line x1="90" y1="640.0" x2="1160" y2="640.0" stroke="#d7dde5" stroke-width="1"/>
<text x="78" y="645.0" font-family="Helvetica, Arial, sans-serif" font-size="12" font-weight="400" fill="#6b7280" text-anchor="end">0.80</text>
<line x1="90" y1="507.5" x2="1160" y2="507.5" stroke="#d7dde5" stroke-width="1"/>
<text x="78" y="512.5" font-family="Helvetica, Arial, sans-serif" font-size="12" font-weight="400" fill="#6b7280" text-anchor="end">1.00</text>
<line x1="90" y1="374.99999999999994" x2="1160" y2="374.99999999999994" stroke="#d7dde5" stroke-width="1"/>
<text x="78" y="379.99999999999994" font-family="Helvetica, Arial, sans-serif" font-size="12" font-weight="400" fill="#6b7280" text-anchor="end">1.20</text>
<line x1="90" y1="242.5" x2="1160" y2="242.5" stroke="#d7dde5" stroke-width="1"/>
<text x="78" y="247.5" font-family="Helvetica, Arial, sans-serif" font-size="12" font-weight="400" fill="#6b7280" text-anchor="end">1.39</text>
<line x1="90" y1="110.0" x2="1160" y2="110.0" stroke="#d7dde5" stroke-width="1"/>
<text x="78" y="115.0" font-family="Helvetica, Arial, sans-serif" font-size="12" font-weight="400" fill="#6b7280" text-anchor="end">1.59</text>
<line x1="90.0" y1="110" x2="90.0" y2="640" stroke="#d7dde5" stroke-width="1"/>
<text x="90.0" y="666" font-family="Helvetica, Arial, sans-serif" font-size="12" font-weight="400" fill="#6b7280" text-anchor="middle">0</text>
<line x1="357.5" y1="110" x2="357.5" y2="640" stroke="#d7dde5" stroke-width="1"/>
<text x="357.5" y="666" font-family="Helvetica, Arial, sans-serif" font-size="12" font-weight="400" fill="#6b7280" text-anchor="middle">25%</text>
<line x1="625.0" y1="110" x2="625.0" y2="640" stroke="#d7dde5" stroke-width="1"/>
<text x="625.0" y="666" font-family="Helvetica, Arial, sans-serif" font-size="12" font-weight="400" fill="#6b7280" text-anchor="middle">50%</text>
<line x1="892.5" y1="110" x2="892.5" y2="640" stroke="#d7dde5" stroke-width="1"/>
<text x="892.5" y="666" font-family="Helvetica, Arial, sans-serif" font-size="12" font-weight="400" fill="#6b7280" text-anchor="middle">75%</text>
<line x1="1160.0" y1="110" x2="1160.0" y2="640" stroke="#d7dde5" stroke-width="1"/>
<text x="1160.0" y="666" font-family="Helvetica, Arial, sans-serif" font-size="12" font-weight="400" fill="#6b7280" text-anchor="middle">100%</text>
<line x1="90" y1="110" x2="90" y2="640" stroke="#5f6975" stroke-width="1.5"/>
<line x1="90" y1="640" x2="1160" y2="640" stroke="#5f6975" stroke-width="1.5"/>
<polyline points="90.00,500.51 91.43,504.11 92.85,503.02 94.28,506.92 95.71,507.48 97.13,507.27 98.56,509.18 99.99,507.55 101.41,510.24 102.84,519.39 104.27,518.26 105.69,517.45 107.12,515.72 108.55,514.95 109.97,519.55 111.40,518.47 112.83,511.67 114.25,515.06 115.68,520.63 117.11,518.01 118.53,519.02 119.96,521.50 121.39,523.38 122.81,529.38 124.24,529.09 125.67,530.35 127.09,528.02 128.52,533.43 129.95,532.95 131.37,537.91 132.80,538.53 134.23,541.59 135.65,545.65 137.08,544.04 138.51,542.62 139.93,534.87 141.36,533.40 142.79,535.98 144.21,535.08 145.64,530.37 147.07,529.23 148.49,526.90 149.92,526.43 151.35,524.15 152.77,516.91 154.20,515.87 155.63,521.11 157.05,524.56 158.48,521.78 159.91,525.52 161.33,527.08 162.76,528.01 164.19,532.68 165.61,528.84 167.04,524.24 168.47,523.63 169.89,525.88 171.32,530.32 172.75,536.47 174.17,535.80 175.60,534.14 177.03,534.13 178.45,529.38 179.88,529.36 181.31,532.26 182.73,530.03 184.16,528.81 185.59,516.08 187.01,511.08 188.44,508.16 189.87,507.79 191.29,508.31 192.72,516.35 194.15,509.75 195.57,516.94 197.00,519.11 198.43,517.30 199.85,516.92 201.28,522.48 202.71,515.03 204.13,519.91 205.56,517.62 206.99,516.74 208.41,516.06 209.84,516.61 211.27,519.47 212.69,521.39 214.12,519.91 215.55,520.91 216.97,525.76 218.40,530.26 219.83,528.13 221.25,530.79 222.68,525.63 224.11,526.57 225.53,521.03 226.96,520.58 228.39,526.90 229.81,528.71 231.24,531.93 232.67,537.65 234.09,531.41 235.52,527.15 236.95,523.94 238.37,528.66 239.80,529.69 241.23,527.68 242.65,532.47 244.08,532.02 245.51,531.43 246.93,530.74 248.36,533.55 249.79,535.84 251.21,535.39 252.64,540.67 254.07,549.24 255.49,546.44 256.92,549.87 258.35,553.70 259.77,557.33 261.20,560.68 262.63,562.07 264.05,555.80 265.48,552.69 266.91,549.06 268.33,549.62 269.76,551.94 271.19,548.93 272.61,548.14 274.04,551.49 275.47,556.05 276.89,558.98 278.32,561.37 279.75,566.70 281.17,564.16 282.60,566.26 284.03,574.28 285.45,583.76 286.88,579.44 288.31,576.51 289.73,570.03 291.16,564.43 292.59,558.58 294.01,559.19 295.44,562.28 296.87,565.64 298.29,574.41 299.72,570.34 301.15,569.83 302.57,563.72 304.00,562.01 305.43,561.88 306.85,564.43 308.28,564.19 309.71,563.87 311.13,561.69 312.56,557.61 313.99,562.60 315.41,562.23 316.84,560.88 318.27,554.13 319.69,544.97 321.12,544.88 322.55,546.40 323.97,549.82 325.40,549.29 326.83,550.67 328.25,547.17 329.68,551.51 331.11,535.59 332.53,534.75 333.96,538.73 335.39,535.92 336.81,529.27 338.24,542.49 339.67,535.78 341.09,530.32 342.52,530.24 343.95,529.34 345.37,527.80 346.80,527.98 348.23,519.15 349.65,522.23 351.08,520.42 352.51,522.27 353.93,521.11 355.36,526.49 356.79,528.04 358.21,530.54 359.64,527.25 361.07,533.17 362.49,535.17 363.92,530.51 365.35,530.46 366.77,529.05 368.20,528.49 369.63,531.59 371.05,528.27 372.48,526.17 373.91,527.14 375.33,528.45 376.76,530.62 378.19,525.05 379.61,527.18 381.04,531.72 382.47,524.37 383.89,524.75 385.32,525.19 386.75,527.46 388.17,523.01 389.60,531.54 391.03,531.34 392.45,524.35 393.88,524.75 395.31,521.84 396.73,519.42 398.16,517.16 399.59,513.06 401.01,517.72 402.44,518.22 403.87,518.74 405.29,518.74 406.72,518.09 408.15,516.66 409.57,518.76 411.00,512.78 412.43,510.87 413.85,509.32 415.28,502.86 416.71,498.70 418.13,503.39 419.56,507.15 420.99,509.50 422.41,505.85 423.84,505.58 425.27,502.84 426.69,502.77 428.12,505.59 429.55,506.00 430.97,506.31 432.40,499.50 433.83,495.86 435.25,499.12 436.68,500.94 438.11,503.55 439.53,505.45 440.96,503.34 442.39,505.51 443.81,503.10 445.24,511.59 446.67,516.65 448.09,523.46 449.52,525.12 450.95,527.68 452.37,528.75 453.80,526.83 455.23,520.90 456.65,518.46 458.08,520.80 459.51,518.52 460.93,523.87 462.36,526.39 463.79,524.10 465.21,533.19 466.64,525.31 468.07,523.86 469.49,523.43 470.92,522.21 472.35,519.37 473.77,519.65 475.20,513.77 476.63,512.59 478.05,508.81 479.48,507.41 480.91,505.18 482.33,501.37 483.76,500.69 485.19,503.16 486.61,502.64 488.04,501.48 489.47,512.33 490.89,515.52 492.32,523.31 493.75,527.99 495.17,528.00 496.60,519.97 498.03,517.23 499.45,517.69 500.88,521.86 502.31,520.28 503.73,520.37 505.16,520.21 506.59,521.38 508.01,522.04 509.44,523.79 510.87,524.84 512.29,521.41 513.72,520.05 515.15,516.59 516.57,513.68 518.00,507.33 519.43,511.11 520.85,513.18 522.28,517.28 523.71,517.98 525.13,516.74 526.56,521.14 527.99,521.20 529.41,517.24 530.84,518.15 532.27,515.29 533.69,506.85 535.12,504.59 536.55,501.46 537.97,504.44 539.40,495.78 540.83,481.34 542.25,485.83 543.68,488.68 545.11,490.45 546.53,494.39 547.96,483.13 549.39,472.56 550.81,458.28 552.24,462.61 553.67,461.59 555.09,466.78 556.52,461.06 557.95,458.25 559.37,474.06 560.80,477.05 562.23,480.10 563.65,471.72 565.08,469.97 566.51,471.45 567.93,465.91 569.36,466.04 570.79,462.62 572.21,459.40 573.64,454.37 575.07,452.37 576.49,451.56 577.92,453.26 579.35,447.77 580.77,446.73 582.20,447.60 583.63,445.67 585.05,443.05 586.48,438.65 587.91,437.86 589.33,441.02 590.76,442.76 592.19,449.37 593.61,446.24 595.04,440.60 596.47,446.20 597.89,443.36 599.32,438.42 600.75,431.03 602.17,431.16 603.60,433.50 605.03,431.41 606.45,432.87 607.88,433.00 609.31,430.89 610.73,438.93 612.16,434.82 613.59,432.86 615.01,431.01 616.44,424.97 617.87,427.73 619.29,425.37 620.72,418.35 622.15,422.65 623.57,419.71 625.00,410.44 626.43,411.25 627.85,406.44 629.28,403.72 630.71,398.94 632.13,396.22 633.56,392.48 634.99,392.80 636.41,401.92 637.84,402.53 639.27,401.03 640.69,409.04 642.12,415.98 643.55,415.52 644.97,417.37 646.40,418.17 647.83,418.91 649.25,420.83 650.68,420.23 652.11,414.54 653.53,415.66 654.96,418.23 656.39,418.14 657.81,413.86 659.24,419.26 660.67,421.00 662.09,425.39 663.52,432.93 664.95,425.30 666.37,426.04 667.80,424.28 669.23,416.38 670.65,412.37 672.08,409.73 673.51,410.36 674.93,407.53 676.36,406.90 677.79,406.88 679.21,412.10 680.64,417.13 682.07,416.89 683.49,416.11 684.92,413.66 686.35,416.35 687.77,422.77 689.20,423.92 690.63,424.15 692.05,427.90 693.48,426.77 694.91,441.84 696.33,445.63 697.76,440.08 699.19,439.88 700.61,435.05 702.04,436.37 703.47,439.18 704.89,447.35 706.32,442.83 707.75,441.40 709.17,438.13 710.60,442.35 712.03,439.17 713.45,443.23 714.88,453.51 716.31,443.08 717.73,439.01 719.16,433.14 720.59,425.09 722.01,424.41 723.44,417.52 724.87,423.30 726.29,417.40 727.72,420.16 729.15,406.89 730.57,414.50 732.00,412.59 733.43,404.25 734.85,415.10 736.28,416.80 737.71,422.84 739.13,416.56 740.56,421.08 741.99,424.87 743.41,425.08 744.84,418.78 746.27,427.48 747.69,421.55 749.12,439.68 750.55,439.43 751.97,432.06 753.40,426.45 754.83,421.71 756.25,417.59 757.68,413.34 759.11,422.47 760.53,421.47 761.96,413.13 763.39,410.53 764.81,417.15 766.24,417.80 767.67,418.98 769.09,408.64 770.52,405.28 771.95,415.88 773.37,426.74 774.80,430.51 776.23,427.96 777.65,413.21 779.08,419.17 780.51,419.33 781.93,420.01 783.36,420.11 784.79,414.40 786.21,422.98 787.64,421.57 789.07,420.64 790.49,421.43 791.92,416.38 793.35,433.81 794.77,427.60 796.20,428.97 797.63,458.02 799.05,465.86 800.48,479.31 801.91,455.90 803.33,469.43 804.76,454.57 806.19,446.39 807.61,455.74 809.04,464.48 810.47,457.58 811.89,464.01 813.32,453.91 814.75,459.80 816.17,462.41 817.60,463.40 819.03,459.21 820.45,454.15 821.88,450.04 823.31,457.23 824.73,449.83 826.16,453.43 827.59,458.80 829.01,454.91 830.44,463.38 831.87,466.55 833.29,456.61 834.72,468.16 836.15,480.54 837.57,465.29 839.00,456.33 840.43,454.77 841.85,451.25 843.28,456.47 844.71,458.57 846.13,459.62 847.56,452.20 848.99,457.43 850.41,451.25 851.84,446.74 853.27,442.27 854.69,442.45 856.12,445.51 857.55,446.65 858.97,440.42 860.40,437.68 861.83,431.87 863.25,438.26 864.68,424.61 866.11,423.97 867.53,422.35 868.96,433.86 870.39,434.86 871.81,438.07 873.24,435.23 874.67,430.01 876.09,437.65 877.52,436.26 878.95,434.98 880.37,431.24 881.80,416.17 883.23,411.32 884.65,411.51 886.08,418.11 887.51,415.11 888.93,411.43 890.36,405.88 891.79,412.61 893.21,409.40 894.64,418.39 896.07,398.37 897.49,386.56 898.92,392.27 900.35,394.17 901.77,380.13 903.20,360.71 904.63,371.67 906.05,368.39 907.48,377.78 908.91,371.03 910.33,375.24 911.76,392.65 913.19,389.49 914.61,379.13 916.04,375.21 917.47,377.91 918.89,370.31 920.32,363.49 921.75,363.27 923.17,359.48 924.60,347.86 926.03,349.95 927.45,340.99 928.88,345.21 930.31,341.17 931.73,336.57 933.16,337.15 934.59,332.19 936.01,338.59 937.44,340.17 938.87,336.45 940.29,342.48 941.72,338.24 943.15,333.38 944.57,339.93 946.00,340.80 947.43,335.27 948.85,342.89 950.28,344.04 951.71,334.73 953.13,326.49 954.56,334.79 955.99,340.06 957.41,346.65 958.84,343.91 960.27,347.85 961.69,347.02 963.12,348.78 964.55,346.77 965.97,348.32 967.40,355.16 968.83,347.33 970.25,347.72 971.68,338.42 973.11,324.04 974.53,329.02 975.96,324.18 977.39,324.98 978.81,327.21 980.24,329.05 981.67,323.83 983.09,321.73 984.52,319.75 985.95,315.66 987.37,314.08 988.80,311.91 990.23,311.08 991.65,312.19 993.08,317.31 994.51,316.77 995.93,319.94 997.36,325.43 998.79,326.48 1000.21,337.17 1001.64,340.11 1003.07,327.97 1004.49,327.37 1005.92,331.71 1007.35,334.24 1008.77,329.29 1010.20,330.40 1011.63,327.12 1013.05,320.85 1014.48,303.26 1015.91,300.11 1017.33,302.37 1018.76,308.05 1020.19,306.21 1021.61,302.98 1023.04,306.04 1024.47,314.69 1025.89,310.28 1027.32,302.56 1028.75,294.81 1030.17,288.49 1031.60,288.15 1033.03,290.41 1034.45,296.76 1035.88,287.36 1037.31,286.39 1038.73,288.38 1040.16,290.16 1041.59,292.65 1043.01,275.88 1044.44,269.10 1045.87,265.74 1047.29,255.69 1048.72,266.41 1050.15,265.64 1051.57,269.88 1053.00,266.74 1054.43,264.74 1055.85,271.89 1057.28,267.57 1058.71,267.52 1060.13,271.79 1061.56,273.63 1062.99,277.94 1064.41,276.62 1065.84,279.92 1067.27,272.09 1068.69,268.10 1070.12,271.80 1071.55,273.08 1072.97,262.85 1074.40,259.17 1075.83,246.10 1077.25,238.61 1078.68,242.84 1080.11,246.30 1081.53,242.10 1082.96,239.43 1084.39,238.75 1085.81,231.99 1087.24,221.33 1088.67,221.72 1090.09,221.64 1091.52,221.24 1092.95,209.30 1094.37,195.21 1095.80,181.30 1097.23,180.25 1098.65,163.01 1100.08,168.34 1101.51,168.67 1102.93,159.48 1104.36,160.85 1105.79,155.61 1107.21,166.80 1108.64,159.98 1110.07,155.57 1111.49,161.43 1112.92,152.84 1114.35,144.43 1115.77,148.35 1117.20,152.64 1118.63,134.09 1120.05,136.74 1121.48,151.30 1122.91,150.00 1124.33,166.86 1125.76,168.04 1127.19,165.07 1128.61,166.61 1130.04,165.28 1131.47,172.27 1132.89,176.88 1134.32,175.43 1135.75,181.81 1137.17,195.05 1138.60,205.51 1140.03,221.28 1141.45,219.01 1142.88,214.99 1144.31,202.44 1145.73,205.06 1147.16,206.06 1148.59,195.69 1150.01,183.20 1151.44,173.37 1152.87,180.95 1154.29,183.93 1155.72,196.84 1157.15,181.59 1158.57,177.88 1160.00,186.77" fill="none" stroke="#1756a9" stroke-width="3" stroke-linejoin="round" stroke-linecap="round"/>
<polyline points="90.00,504.79 91.43,507.58 92.85,507.64 94.28,511.72 95.71,512.23 97.13,510.28 98.56,512.43 99.99,511.14 101.41,508.75 102.84,516.57 104.27,521.72 105.69,523.61 107.12,521.57 108.55,517.28 109.97,519.69 111.40,516.39 112.83,515.42 114.25,518.87 115.68,523.03 117.11,521.89 118.53,522.34 119.96,524.40 121.39,527.35 122.81,531.23 124.24,534.70 125.67,538.91 127.09,536.17 128.52,541.64 129.95,537.75 131.37,540.45 132.80,543.70 134.23,550.67 135.65,554.79 137.08,551.55 138.51,552.99 139.93,549.69 141.36,547.68 142.79,550.86 144.21,548.94 145.64,546.15 147.07,545.58 148.49,546.06 149.92,547.59 151.35,545.74 152.77,542.49 154.20,540.46 155.63,543.93 157.05,545.70 158.48,544.10 159.91,545.42 161.33,545.70 162.76,549.91 164.19,554.58 165.61,552.04 167.04,551.14 168.47,550.90 169.89,552.61 171.32,554.52 172.75,559.69 174.17,559.79 175.60,560.08 177.03,562.44 178.45,560.24 179.88,560.04 181.31,563.82 182.73,563.88 184.16,563.39 185.59,549.39 187.01,544.65 188.44,543.22 189.87,543.70 191.29,544.25 192.72,549.84 194.15,546.52 195.57,553.88 197.00,555.07 198.43,549.22 199.85,548.00 201.28,551.93 202.71,547.43 204.13,550.76 205.56,546.57 206.99,545.85 208.41,545.02 209.84,547.22 211.27,546.42 212.69,546.05 214.12,542.32 215.55,543.44 216.97,550.09 218.40,553.61 219.83,554.88 221.25,553.30 222.68,550.43 224.11,553.23 225.53,552.24 226.96,553.04 228.39,558.62 229.81,560.89 231.24,562.67 232.67,566.14 234.09,559.28 235.52,555.66 236.95,554.54 238.37,557.41 239.80,558.74 241.23,559.37 242.65,560.37 244.08,560.12 245.51,558.94 246.93,555.55 248.36,553.34 249.79,554.89 251.21,555.70 252.64,556.45 254.07,564.92 255.49,563.88 256.92,566.51 258.35,570.13 259.77,569.76 261.20,575.16 262.63,576.42 264.05,573.70 265.48,572.53 266.91,570.52 268.33,572.25 269.76,572.73 271.19,568.38 272.61,570.67 274.04,573.89 275.47,574.44 276.89,574.75 278.32,573.54 279.75,578.26 281.17,577.93 282.60,575.86 284.03,580.31 285.45,588.40 286.88,587.49 288.31,586.37 289.73,583.01 291.16,582.98 292.59,579.90 294.01,581.15 295.44,584.94 296.87,588.38 298.29,594.62 299.72,595.04 301.15,594.29 302.57,593.84 304.00,592.80 305.43,593.02 306.85,595.78 308.28,597.70 309.71,596.80 311.13,595.81 312.56,592.12 313.99,596.32 315.41,596.26 316.84,594.78 318.27,589.51 319.69,582.53 321.12,580.95 322.55,582.33 323.97,584.41 325.40,586.07 326.83,588.58 328.25,586.39 329.68,591.75 331.11,580.73 332.53,580.86 333.96,584.09 335.39,583.07 336.81,578.65 338.24,586.89 339.67,583.32 341.09,578.84 342.52,579.98 343.95,579.66 345.37,578.35 346.80,577.69 348.23,567.93 349.65,568.40 351.08,565.78 352.51,567.90 353.93,570.99 355.36,575.52 356.79,578.57 358.21,580.75 359.64,577.92 361.07,582.33 362.49,582.59 363.92,580.80 365.35,584.32 366.77,583.62 368.20,583.94 369.63,587.08 371.05,585.59 372.48,583.31 373.91,586.45 375.33,587.42 376.76,584.78 378.19,583.39 379.61,588.32 381.04,591.41 382.47,585.56 383.89,588.27 385.32,588.78 386.75,592.46 388.17,588.33 389.60,592.12 391.03,594.49 392.45,590.11 393.88,589.07 395.31,584.90 396.73,582.97 398.16,586.82 399.59,583.34 401.01,586.47 402.44,587.44 403.87,587.53 405.29,588.55 406.72,590.62 408.15,589.04 409.57,588.10 411.00,584.18 412.43,585.29 413.85,582.22 415.28,576.22 416.71,575.61 418.13,579.32 419.56,582.08 420.99,582.22 422.41,580.66 423.84,582.01 425.27,582.21 426.69,583.09 428.12,585.04 429.55,584.61 430.97,584.36 432.40,580.74 433.83,577.48 435.25,579.85 436.68,579.63 438.11,582.25 439.53,580.45 440.96,581.57 442.39,583.64 443.81,581.84 445.24,586.48 446.67,593.10 448.09,595.26 449.52,593.24 450.95,595.03 452.37,594.34 453.80,592.04 455.23,584.26 456.65,584.68 458.08,590.14 459.51,587.97 460.93,591.68 462.36,596.59 463.79,595.54 465.21,599.22 466.64,591.25 468.07,592.57 469.49,595.66 470.92,597.44 472.35,595.24 473.77,595.51 475.20,591.92 476.63,591.24 478.05,587.94 479.48,588.01 480.91,589.54 482.33,585.63 483.76,585.45 485.19,587.93 486.61,588.16 488.04,586.34 489.47,593.75 490.89,598.40 492.32,605.40 493.75,607.57 495.17,605.77 496.60,601.20 498.03,599.03 499.45,599.74 500.88,606.67 502.31,605.29 503.73,605.03 505.16,605.74 506.59,607.42 508.01,610.23 509.44,612.29 510.87,613.36 512.29,612.54 513.72,612.06 515.15,608.36 516.57,605.49 518.00,599.13 519.43,603.45 520.85,605.58 522.28,609.54 523.71,609.07 525.13,608.57 526.56,614.17 527.99,615.43 529.41,613.59 530.84,614.68 532.27,612.50 533.69,607.99 535.12,603.72 536.55,602.78 537.97,606.07 539.40,600.35 540.83,584.27 542.25,585.91 543.68,586.47 545.11,590.89 546.53,593.82 547.96,577.89 549.39,567.27 550.81,558.19 552.24,562.09 553.67,559.72 555.09,569.00 556.52,559.99 557.95,552.06 559.37,557.09 560.80,562.46 562.23,563.17 563.65,562.58 565.08,562.36 566.51,563.80 567.93,563.82 569.36,564.85 570.79,566.94 572.21,564.84 573.64,563.36 575.07,561.19 576.49,561.51 577.92,560.64 579.35,559.10 580.77,557.52 582.20,558.66 583.63,555.31 585.05,553.11 586.48,552.23 587.91,545.40 589.33,547.48 590.76,548.24 592.19,548.82 593.61,549.49 595.04,545.96 596.47,553.85 597.89,553.95 599.32,551.32 600.75,545.50 602.17,545.74 603.60,546.82 605.03,550.20 606.45,550.91 607.88,551.77 609.31,550.85 610.73,556.93 612.16,554.66 613.59,552.59 615.01,552.23 616.44,544.50 617.87,546.95 619.29,544.41 620.72,541.27 622.15,542.11 623.57,542.52 625.00,536.86 626.43,537.00 627.85,534.82 629.28,535.08 630.71,528.72 632.13,527.80 633.56,524.72 634.99,526.20 636.41,533.24 637.84,533.59 639.27,529.53 640.69,536.87 642.12,542.54 643.55,543.10 644.97,545.12 646.40,544.88 647.83,539.56 649.25,542.46 650.68,541.30 652.11,540.21 653.53,548.73 654.96,553.17 656.39,554.39 657.81,551.17 659.24,554.66 660.67,556.24 662.09,557.92 663.52,560.32 664.95,555.22 666.37,556.92 667.80,555.57 669.23,550.65 670.65,548.29 672.08,547.14 673.51,549.23 674.93,546.01 676.36,547.37 677.79,547.89 679.21,552.29 680.64,558.25 682.07,557.57 683.49,557.49 684.92,553.98 686.35,555.24 687.77,562.78 689.20,562.20 690.63,562.33 692.05,566.65 693.48,564.52 694.91,568.07 696.33,571.12 697.76,570.00 699.19,571.57 700.61,570.83 702.04,571.93 703.47,571.17 704.89,574.56 706.32,569.78 707.75,567.88 709.17,568.83 710.60,573.98 712.03,568.11 713.45,571.88 714.88,575.92 716.31,567.72 717.73,564.74 719.16,565.21 720.59,558.03 722.01,560.45 723.44,557.52 724.87,563.89 726.29,560.70 727.72,562.07 729.15,547.14 730.57,555.95 732.00,553.06 733.43,547.87 734.85,555.09 736.28,554.47 737.71,561.40 739.13,557.48 740.56,562.20 741.99,562.58 743.41,564.74 744.84,559.84 746.27,565.96 747.69,564.23 749.12,578.90 750.55,579.54 751.97,574.25 753.40,568.51 754.83,559.70 756.25,554.99 757.68,550.02 759.11,557.67 760.53,552.12 761.96,549.89 763.39,542.50 764.81,544.38 766.24,548.18 767.67,543.80 769.09,536.88 770.52,525.92 771.95,532.25 773.37,543.09 774.80,542.22 776.23,546.34 777.65,536.26 779.08,537.94 780.51,541.40 781.93,541.09 783.36,541.27 784.79,541.93 786.21,549.81 787.64,545.04 789.07,543.47 790.49,538.02 791.92,535.81 793.35,551.35 794.77,548.03 796.20,534.33 797.63,541.24 799.05,547.63 800.48,554.80 801.91,565.23 803.33,563.86 804.76,556.23 806.19,552.09 807.61,559.24 809.04,560.15 810.47,554.61 811.89,553.07 813.32,552.01 814.75,561.74 816.17,570.17 817.60,573.11 819.03,569.68 820.45,567.23 821.88,563.88 823.31,572.02 824.73,570.11 826.16,571.44 827.59,573.51 829.01,571.47 830.44,580.58 831.87,582.86 833.29,583.95 834.72,595.33 836.15,605.83 837.57,594.67 839.00,589.12 840.43,588.16 841.85,584.34 843.28,583.81 844.71,585.66 846.13,584.59 847.56,584.37 848.99,586.99 850.41,583.05 851.84,579.04 853.27,577.00 854.69,578.78 856.12,581.20 857.55,580.75 858.97,578.60 860.40,576.63 861.83,573.55 863.25,577.90 864.68,567.98 866.11,564.20 867.53,565.68 868.96,572.49 870.39,573.25 871.81,575.19 873.24,575.72 874.67,574.68 876.09,580.99 877.52,582.10 878.95,582.49 880.37,580.86 881.80,568.74 883.23,566.19 884.65,568.64 886.08,571.71 887.51,569.16 888.93,567.98 890.36,564.39 891.79,568.70 893.21,566.70 894.64,572.59 896.07,557.63 897.49,550.07 898.92,554.37 900.35,556.44 901.77,545.37 903.20,532.57 904.63,541.31 906.05,540.02 907.48,547.32 908.91,541.22 910.33,544.15 911.76,556.74 913.19,549.37 914.61,545.69 916.04,541.07 917.47,545.53 918.89,539.29 920.32,536.29 921.75,535.51 923.17,535.79 924.60,527.74 926.03,529.40 927.45,521.68 928.88,524.90 930.31,520.05 931.73,515.60 933.16,514.79 934.59,515.75 936.01,519.36 937.44,521.92 938.87,519.73 940.29,525.55 941.72,520.38 943.15,514.25 944.57,521.12 946.00,524.42 947.43,519.20 948.85,525.93 950.28,527.54 951.71,521.19 953.13,517.40 954.56,523.72 955.99,529.46 957.41,534.13 958.84,531.63 960.27,536.12 961.69,537.00 963.12,539.80 964.55,536.60 965.97,536.81 967.40,540.68 968.83,536.37 970.25,537.53 971.68,531.53 973.11,521.53 974.53,525.71 975.96,522.00 977.39,523.73 978.81,524.28 980.24,527.56 981.67,522.66 983.09,512.58 984.52,515.93 985.95,512.39 987.37,512.59 988.80,508.76 990.23,509.93 991.65,514.11 993.08,518.02 994.51,515.97 995.93,520.28 997.36,527.05 998.79,531.52 1000.21,540.44 1001.64,542.81 1003.07,530.29 1004.49,530.85 1005.92,534.73 1007.35,533.00 1008.77,530.30 1010.20,527.81 1011.63,525.61 1013.05,525.68 1014.48,513.04 1015.91,510.82 1017.33,507.24 1018.76,511.53 1020.19,507.16 1021.61,501.97 1023.04,505.59 1024.47,507.35 1025.89,507.12 1027.32,505.88 1028.75,502.97 1030.17,500.38 1031.60,501.89 1033.03,502.13 1034.45,507.55 1035.88,501.52 1037.31,501.02 1038.73,503.15 1040.16,503.53 1041.59,505.14 1043.01,494.55 1044.44,490.18 1045.87,484.11 1047.29,475.98 1048.72,483.20 1050.15,478.96 1051.57,484.73 1053.00,485.33 1054.43,485.88 1055.85,492.80 1057.28,490.69 1058.71,490.62 1060.13,492.67 1061.56,493.66 1062.99,494.49 1064.41,494.08 1065.84,498.76 1067.27,494.78 1068.69,490.73 1070.12,493.49 1071.55,496.61 1072.97,489.44 1074.40,486.01 1075.83,474.57 1077.25,469.84 1078.68,472.74 1080.11,468.47 1081.53,469.20 1082.96,468.95 1084.39,468.56 1085.81,465.19 1087.24,458.53 1088.67,458.79 1090.09,458.04 1091.52,456.72 1092.95,449.45 1094.37,435.93 1095.80,423.72 1097.23,418.41 1098.65,412.29 1100.08,418.07 1101.51,417.36 1102.93,410.36 1104.36,405.71 1105.79,402.00 1107.21,411.08 1108.64,407.77 1110.07,403.46 1111.49,410.58 1112.92,400.35 1114.35,396.69 1115.77,402.81 1117.20,403.97 1118.63,388.21 1120.05,390.42 1121.48,398.09 1122.91,399.75 1124.33,410.41 1125.76,406.49 1127.19,407.46 1128.61,408.04 1130.04,406.56 1131.47,406.27 1132.89,407.71 1134.32,410.35 1135.75,416.19 1137.17,421.21 1138.60,428.36 1140.03,435.36 1141.45,437.34 1142.88,433.04 1144.31,425.34 1145.73,420.92 1147.16,415.52 1148.59,406.17 1150.01,407.12 1151.44,402.29 1152.87,408.47 1154.29,412.51 1155.72,422.59 1157.15,420.09 1158.57,419.36 1160.00,425.86" fill="none" stroke="#c9791a" stroke-width="3" stroke-linejoin="round" stroke-linecap="round"/>
<polyline points="90.00,504.69 91.43,507.61 92.85,507.61 94.28,511.71 95.71,512.25 97.13,510.24 98.56,512.32 99.99,511.12 101.41,508.75 102.84,516.49 104.27,521.64 105.69,523.53 107.12,521.60 108.55,517.31 109.97,519.69 111.40,516.31 112.83,515.30 114.25,518.84 115.68,523.02 117.11,521.79 118.53,522.35 119.96,524.39 121.39,527.35 122.81,531.25 124.24,534.66 125.67,538.92 127.09,536.13 128.52,541.65 129.95,537.77 131.37,540.39 132.80,543.67 134.23,550.65 135.65,554.75 137.08,551.54 138.51,553.01 139.93,549.79 141.36,547.77 142.79,550.91 144.21,549.05 145.64,546.24 147.07,545.64 148.49,546.15 149.92,547.69 151.35,545.72 152.77,542.60 154.20,540.48 155.63,544.12 157.05,545.78 158.48,544.20 159.91,545.52 161.33,545.79 162.76,550.04 164.19,554.70 165.61,552.12 167.04,551.24 168.47,551.23 169.89,552.72 171.32,554.53 172.75,559.75 174.17,559.90 175.60,560.20 177.03,562.52 178.45,560.38 179.88,560.13 181.31,563.92 182.73,564.03 184.16,563.51 185.59,549.55 187.01,544.84 188.44,543.35 189.87,543.89 191.29,544.46 192.72,550.00 194.15,546.67 195.57,554.04 197.00,555.16 198.43,549.32 199.85,548.11 201.28,551.93 202.71,547.52 204.13,550.85 205.56,546.68 206.99,546.02 208.41,545.08 209.84,547.32 211.27,546.58 212.69,546.18 214.12,542.32 215.55,543.57 216.97,550.25 218.40,553.74 219.83,554.91 221.25,553.49 222.68,550.50 224.11,553.37 225.53,552.31 226.96,553.13 228.39,558.76 229.81,561.11 231.24,562.88 232.67,566.29 234.09,559.46 235.52,555.80 236.95,554.68 238.37,557.58 239.80,558.91 241.23,559.56 242.65,560.42 244.08,560.32 245.51,559.15 246.93,555.72 248.36,553.54 249.79,555.04 251.21,555.84 252.64,556.58 254.07,565.01 255.49,563.97 256.92,566.61 258.35,570.32 259.77,569.93 261.20,575.36 262.63,576.47 264.05,573.78 265.48,572.69 266.91,570.67 268.33,572.44 269.76,572.94 271.19,568.50 272.61,570.79 274.04,574.03 275.47,574.55 276.89,574.95 278.32,573.68 279.75,578.39 281.17,578.05 282.60,576.05 284.03,580.40 285.45,588.52 286.88,587.63 288.31,586.45 289.73,583.20 291.16,583.13 292.59,580.09 294.01,581.23 295.44,585.02 296.87,588.49 298.29,594.79 299.72,595.22 301.15,594.45 302.57,593.96 304.00,592.94 305.43,593.20 306.85,596.04 308.28,597.90 309.71,596.88 311.13,596.02 312.56,592.32 313.99,596.54 315.41,596.47 316.84,595.01 318.27,589.72 319.69,582.74 321.12,581.22 322.55,582.57 323.97,584.60 325.40,586.32 326.83,588.82 328.25,586.63 329.68,592.10 331.11,581.04 332.53,581.10 333.96,584.36 335.39,583.36 336.81,578.94 338.24,587.02 339.67,583.53 341.09,579.14 342.52,580.26 343.95,579.95 345.37,578.58 346.80,577.98 348.23,568.00 349.65,568.69 351.08,566.08 352.51,568.18 353.93,571.27 355.36,575.54 356.79,578.87 358.21,581.07 359.64,578.18 361.07,582.65 362.49,582.91 363.92,581.13 365.35,584.59 366.77,583.94 368.20,584.27 369.63,587.34 371.05,585.90 372.48,583.82 373.91,586.77 375.33,587.75 376.76,585.12 378.19,583.76 379.61,588.62 381.04,591.69 382.47,585.91 383.89,588.58 385.32,589.17 386.75,592.81 388.17,588.69 389.60,592.38 391.03,594.87 392.45,590.45 393.88,589.37 395.31,585.21 396.73,583.31 398.16,587.25 399.59,583.71 401.01,586.83 402.44,587.81 403.87,587.83 405.29,588.88 406.72,591.02 408.15,589.41 409.57,588.46 411.00,584.61 412.43,585.72 413.85,582.63 415.28,576.64 416.71,576.02 418.13,579.74 419.56,582.44 420.99,582.56 422.41,581.09 423.84,582.46 425.27,582.52 426.69,583.40 428.12,585.52 429.55,585.14 430.97,584.62 432.40,581.09 433.83,577.85 435.25,580.34 436.68,580.07 438.11,582.63 439.53,580.80 440.96,581.97 442.39,584.00 443.81,582.22 445.24,586.94 446.67,593.47 448.09,595.67 449.52,593.61 450.95,595.40 452.37,594.67 453.80,592.32 455.23,584.64 456.65,584.91 458.08,590.59 459.51,588.34 460.93,591.96 462.36,597.02 463.79,595.95 465.21,599.63 466.64,591.67 468.07,592.98 469.49,596.08 470.92,597.80 472.35,595.69 473.77,595.95 475.20,592.35 476.63,591.66 478.05,588.35 479.48,588.46 480.91,589.94 482.33,586.07 483.76,585.90 485.19,588.33 486.61,588.64 488.04,586.81 489.47,594.17 490.89,598.87 492.32,605.90 493.75,608.05 495.17,606.23 496.60,601.55 498.03,599.46 499.45,600.20 500.88,607.15 502.31,605.71 503.73,605.43 505.16,606.19 506.59,607.84 508.01,610.68 509.44,612.70 510.87,613.82 512.29,613.01 513.72,612.56 515.15,608.84 516.57,605.74 518.00,599.54 519.43,603.94 520.85,606.03 522.28,609.98 523.71,609.53 525.13,609.10 526.56,614.64 527.99,615.91 529.41,614.13 530.84,615.17 532.27,613.02 533.69,608.45 535.12,604.19 536.55,603.22 537.97,606.59 539.40,600.81 540.83,584.75 542.25,586.43 543.68,586.98 545.11,591.42 546.53,594.32 547.96,578.32 549.39,567.76 550.81,558.70 552.24,562.64 553.67,560.23 555.09,569.36 556.52,560.49 557.95,552.67 559.37,557.41 560.80,563.00 562.23,563.63 563.65,563.12 565.08,562.86 566.51,564.30 567.93,564.37 569.36,565.42 570.79,567.52 572.21,565.38 573.64,563.93 575.07,561.74 576.49,562.09 577.92,561.15 579.35,559.67 580.77,558.06 582.20,559.20 583.63,555.87 585.05,553.70 586.48,552.78 587.91,546.05 589.33,548.00 590.76,548.74 592.19,549.37 593.61,550.06 595.04,546.47 596.47,554.35 597.89,554.50 599.32,551.90 600.75,546.10 602.17,546.36 603.60,547.35 605.03,550.85 606.45,551.48 607.88,552.34 609.31,551.42 610.73,557.55 612.16,555.28 613.59,553.26 615.01,553.01 616.44,545.17 617.87,547.54 619.29,544.99 620.72,541.89 622.15,542.74 623.57,543.15 625.00,537.48 626.43,537.64 627.85,535.45 629.28,535.71 630.71,529.40 632.13,528.45 633.56,525.39 634.99,526.87 636.41,533.93 637.84,534.23 639.27,530.17 640.69,537.54 642.12,543.19 643.55,543.76 644.97,545.77 646.40,545.53 647.83,540.18 649.25,543.12 650.68,541.96 652.11,540.85 653.53,549.39 654.96,553.85 656.39,555.09 657.81,551.83 659.24,555.36 660.67,556.93 662.09,558.63 663.52,561.00 664.95,555.92 666.37,557.62 667.80,556.27 669.23,551.27 670.65,548.98 672.08,547.78 673.51,549.99 674.93,546.73 676.36,547.80 677.79,548.63 679.21,552.96 680.64,558.94 682.07,558.26 683.49,558.21 684.92,554.68 686.35,556.02 687.77,563.51 689.20,562.92 690.63,563.10 692.05,567.30 693.48,565.16 694.91,568.82 696.33,571.84 697.76,570.54 699.19,572.45 700.61,571.47 702.04,572.55 703.47,571.83 704.89,575.29 706.32,570.40 707.75,568.49 709.17,569.57 710.60,574.73 712.03,568.88 713.45,572.61 714.88,576.66 716.31,568.39 717.73,565.38 719.16,565.89 720.59,558.85 722.01,561.13 723.44,558.19 724.87,564.58 726.29,561.42 727.72,562.76 729.15,547.91 730.57,556.65 732.00,553.79 733.43,548.56 734.85,555.76 736.28,555.19 737.71,562.10 739.13,558.20 740.56,562.95 741.99,563.15 743.41,565.43 744.84,560.58 746.27,566.66 747.69,564.94 749.12,579.61 750.55,580.24 751.97,574.98 753.40,569.23 754.83,560.44 756.25,555.69 757.68,550.73 759.11,558.40 760.53,552.82 761.96,550.59 763.39,543.28 764.81,545.09 766.24,549.03 767.67,544.53 769.09,537.56 770.52,526.66 771.95,533.01 773.37,543.70 774.80,542.90 776.23,546.99 777.65,536.90 779.08,538.65 780.51,542.00 781.93,541.87 783.36,542.03 784.79,542.59 786.21,550.45 787.64,545.76 789.07,544.16 790.49,538.76 791.92,536.36 793.35,552.16 794.77,548.75 796.20,535.52 797.63,542.58 799.05,548.20 800.48,555.65 801.91,562.46 803.33,563.92 804.76,556.23 806.19,552.20 807.61,559.34 809.04,560.31 810.47,554.76 811.89,553.20 813.32,551.92 814.75,561.83 816.17,570.26 817.60,573.24 819.03,569.88 820.45,567.37 821.88,564.05 823.31,572.18 824.73,570.14 826.16,571.61 827.59,573.63 829.01,571.68 830.44,580.70 831.87,582.97 833.29,584.15 834.72,595.51 836.15,606.00 837.57,594.85 839.00,589.33 840.43,588.35 841.85,584.49 843.28,583.99 844.71,585.86 846.13,584.80 847.56,584.52 848.99,587.17 850.41,583.20 851.84,579.22 853.27,577.23 854.69,579.01 856.12,581.31 857.55,580.91 858.97,578.75 860.40,576.83 861.83,573.76 863.25,578.13 864.68,568.16 866.11,564.40 867.53,565.92 868.96,572.73 870.39,573.48 871.81,575.29 873.24,575.95 874.67,574.89 876.09,581.18 877.52,582.33 878.95,582.72 880.37,581.14 881.80,568.99 883.23,566.41 884.65,569.10 886.08,572.00 887.51,569.42 888.93,568.21 890.36,564.66 891.79,568.94 893.21,566.96 894.64,572.83 896.07,557.86 897.49,550.26 898.92,554.65 900.35,556.68 901.77,545.58 903.20,532.78 904.63,541.64 906.05,540.26 907.48,547.57 908.91,541.48 910.33,544.43 911.76,557.00 913.19,549.61 914.61,545.94 916.04,541.40 917.47,545.79 918.89,539.62 920.32,536.58 921.75,535.78 923.17,536.07 924.60,528.05 926.03,529.69 927.45,522.02 928.88,525.20 930.31,520.33 931.73,515.90 933.16,515.11 934.59,516.06 936.01,519.72 937.44,522.21 938.87,520.03 940.29,525.85 941.72,520.74 943.15,514.63 944.57,521.39 946.00,524.66 947.43,519.49 948.85,526.26 950.28,527.91 951.71,521.57 953.13,517.73 954.56,524.09 955.99,529.79 957.41,534.48 958.84,532.00 960.27,536.50 961.69,537.30 963.12,540.15 964.55,537.00 965.97,537.17 967.40,540.98 968.83,536.72 970.25,537.88 971.68,531.86 973.11,521.92 974.53,526.09 975.96,522.40 977.39,524.08 978.81,524.68 980.24,527.90 981.67,523.07 983.09,513.03 984.52,516.33 985.95,512.73 987.37,512.92 988.80,509.15 990.23,510.28 991.65,514.49 993.08,518.37 994.51,516.36 995.93,520.58 997.36,527.39 998.79,531.91 1000.21,540.84 1001.64,543.19 1003.07,530.78 1004.49,531.22 1005.92,535.12 1007.35,533.47 1008.77,530.63 1010.20,528.17 1011.63,525.99 1013.05,526.05 1014.48,513.41 1015.91,511.18 1017.33,507.69 1018.76,511.95 1020.19,507.56 1021.61,502.43 1023.04,505.96 1024.47,507.73 1025.89,507.51 1027.32,506.33 1028.75,503.39 1030.17,500.80 1031.60,502.34 1033.03,502.57 1034.45,507.94 1035.88,501.93 1037.31,501.46 1038.73,503.58 1040.16,503.97 1041.59,505.59 1043.01,494.96 1044.44,490.64 1045.87,484.55 1047.29,476.45 1048.72,483.65 1050.15,479.40 1051.57,485.17 1053.00,485.74 1054.43,486.30 1055.85,493.26 1057.28,491.09 1058.71,491.09 1060.13,493.14 1061.56,494.07 1062.99,494.95 1064.41,494.56 1065.84,499.22 1067.27,495.24 1068.69,491.19 1070.12,493.93 1071.55,497.09 1072.97,489.93 1074.40,486.49 1075.83,475.07 1077.25,470.32 1078.68,473.22 1080.11,468.95 1081.53,469.66 1082.96,469.41 1084.39,469.03 1085.81,465.68 1087.24,459.07 1088.67,459.31 1090.09,458.53 1091.52,457.13 1092.95,450.03 1094.37,436.44 1095.80,424.15 1097.23,418.88 1098.65,412.88 1100.08,418.61 1101.51,417.84 1102.93,410.88 1104.36,406.21 1105.79,402.48 1107.21,411.60 1108.64,408.29 1110.07,404.02 1111.49,411.09 1112.92,400.92 1114.35,397.27 1115.77,403.38 1117.20,404.52 1118.63,388.85 1120.05,390.99 1121.48,398.65 1122.91,400.33 1124.33,411.07 1125.76,407.05 1127.19,407.99 1128.61,408.52 1130.04,407.10 1131.47,406.75 1132.89,408.22 1134.32,410.81 1135.75,416.70 1137.17,421.76 1138.60,428.82 1140.03,435.73 1141.45,437.84 1142.88,433.54 1144.31,425.79 1145.73,421.41 1147.16,416.04 1148.59,406.65 1150.01,407.44 1151.44,402.78 1152.87,409.04 1154.29,412.97 1155.72,423.12 1157.15,420.54 1158.57,419.88 1160.00,426.37" fill="none" stroke="#2d8f5b" stroke-width="3" stroke-linejoin="round" stroke-linecap="round"/>
<line x1="110" y1="692" x2="140" y2="692" stroke="#1756a9" stroke-width="4"/>
<text x="150" y="697" font-family="Helvetica, Arial, sans-serif" font-size="14" font-weight="400" fill="#243040" text-anchor="start">Unhedged</text>
<line x1="360" y1="692" x2="390" y2="692" stroke="#c9791a" stroke-width="4"/>
<text x="400" y="697" font-family="Helvetica, Arial, sans-serif" font-size="14" font-weight="400" fill="#243040" text-anchor="start">SPY Hedge</text>
<line x1="610" y1="692" x2="640" y2="692" stroke="#2d8f5b" stroke-width="4"/>
<text x="650" y="697" font-family="Helvetica, Arial, sans-serif" font-size="14" font-weight="400" fill="#243040" text-anchor="start">VOO Hedge</text>
</svg>