<svg xmlns="http://www.w3.org/2000/svg" width="1140" height="820" viewBox="0 0 1140 820">
<rect x="0" y="0" width="1140" height="820" fill="#ffffff"/>
<text x="175" y="42" font-family="Helvetica, Arial, sans-serif" font-size="28" font-weight="700" fill="#243040" text-anchor="start">Figure 1. Growth-Rate Stability Across the Two 3-Year Windows</text>
<text x="175" y="72" font-family="Helvetica, Arial, sans-serif" font-size="14" font-weight="400" fill="#6b7280" text-anchor="start">Each dot is one stock. The dashed diagonal is the line of perfect stability.</text>
<text x="175" y="98" font-family="Helvetica, Arial, sans-serif" font-size="13" font-weight="400" fill="#6b7280" text-anchor="start">X-axis: first-period CAGR. Y-axis: second-period CAGR.</text>
<line x1="175" y1="690.0" x2="1070" y2="690.0" stroke="#d7dde5" stroke-width="1"/>
<line x1="175.0" y1="140" x2="175.0" y2="690" stroke="#d7dde5" stroke-width="1"/>
<text x="161" y="695.0" font-family="Helvetica, Arial, sans-serif" font-size="12" font-weight="400" fill="#6b7280" text-anchor="end">-29.18%</text>
<text x="175.0" y="718" font-family="Helvetica, Arial, sans-serif" font-size="12" font-weight="400" fill="#6b7280" text-anchor="middle">-29.18%</text>
<line x1="175" y1="552.5" x2="1070" y2="552.5" stroke="#d7dde5" stroke-width="1"/>
<line x1="398.75" y1="140" x2="398.75" y2="690" stroke="#d7dde5" stroke-width="1"/>
<text x="161" y="557.5" font-family="Helvetica, Arial, sans-serif" font-size="12" font-weight="400" fill="#6b7280" text-anchor="end">3.70%</text>
<text x="398.75" y="718" font-family="Helvetica, Arial, sans-serif" font-size="12" font-weight="400" fill="#6b7280" text-anchor="middle">3.70%</text>
<line x1="175" y1="415.0" x2="1070" y2="415.0" stroke="#d7dde5" stroke-width="1"/>
<line x1="622.5" y1="140" x2="622.5" y2="690" stroke="#d7dde5" stroke-width="1"/>
<text x="161" y="420.0" font-family="Helvetica, Arial, sans-serif" font-size="12" font-weight="400" fill="#6b7280" text-anchor="end">36.58%</text>
<text x="622.5" y="718" font-family="Helvetica, Arial, sans-serif" font-size="12" font-weight="400" fill="#6b7280" text-anchor="middle">36.58%</text>
<line x1="175" y1="277.5" x2="1070" y2="277.5" stroke="#d7dde5" stroke-width="1"/>
<line x1="846.2499999999999" y1="140" x2="846.2499999999999" y2="690" stroke="#d7dde5" stroke-width="1"/>
<text x="161" y="282.5" font-family="Helvetica, Arial, sans-serif" font-size="12" font-weight="400" fill="#6b7280" text-anchor="end">69.46%</text>
<text x="846.2499999999999" y="718" font-family="Helvetica, Arial, sans-serif" font-size="12" font-weight="400" fill="#6b7280" text-anchor="middle">69.46%</text>
<line x1="175" y1="140.0" x2="1070" y2="140.0" stroke="#d7dde5" stroke-width="1"/>
<line x1="1070.0" y1="140" x2="1070.0" y2="690" stroke="#d7dde5" stroke-width="1"/>
<text x="161" y="145.0" font-family="Helvetica, Arial, sans-serif" font-size="12" font-weight="400" fill="#6b7280" text-anchor="end">102.34%</text>
<text x="1070.0" y="718" font-family="Helvetica, Arial, sans-serif" font-size="12" font-weight="400" fill="#6b7280" text-anchor="middle">102.34%</text>
<line x1="175" y1="690" x2="1070" y2="140" stroke="#5f6975" stroke-width="2" stroke-dasharray="6 6"/>
<line x1="175" y1="140" x2="175" y2="690" stroke="#5f6975" stroke-width="1.5"/>
<line x1="175" y1="690" x2="1070" y2="690" stroke="#5f6975" stroke-width="1.5"/>
<circle cx="350.59252083946694" cy="422.3097562559267" r="5.5" fill="#2d8f5b" stroke="none"/>
<circle cx="406.82005030426456" cy="632.0228590612742" r="5.5" fill="#c9791a" stroke="none"/>
<circle cx="649.5605925107203" cy="487.6108932990772" r="5.5" fill="#c9791a" stroke="none"/>
<circle cx="995.923359216604" cy="573.5621789738642" r="5.5" fill="#c9791a" stroke="none"/>
<circle cx="396.38597247088" cy="508.03203390467246" r="5.5" fill="#2d8f5b" stroke="none"/>
<circle cx="472.17709538178656" cy="494.4504311522633" r="5.5" fill="#2d8f5b" stroke="none"/>
<circle cx="695.6880581478192" cy="516.4466708157929" r="5.5" fill="#c9791a" stroke="none"/>
<circle cx="509.93838875222906" cy="379.8484433297843" r="5.5" fill="#2d8f5b" stroke="none"/>
<circle cx="335.15234455588427" cy="529.5622952703579" r="5.5" fill="#2d8f5b" stroke="none"/>
<circle cx="421.1441186612028" cy="383.8550303923247" r="5.5" fill="#2d8f5b" stroke="none"/>
<circle cx="354.8834371177016" cy="408.6519070972872" r="5.5" fill="#2d8f5b" stroke="none"/>
<circle cx="333.6913966496887" cy="374.08830414752117" r="5.5" fill="#2d8f5b" stroke="none"/>
<circle cx="768.4358094504223" cy="177.93103448275858" r="5.5" fill="#2d8f5b" stroke="none"/>
<circle cx="451.7679620304092" cy="601.3522872473101" r="5.5" fill="#c9791a" stroke="none"/>
<circle cx="670.7775651064262" cy="625.7122190049188" r="5.5" fill="#c9791a" stroke="none"/>
<circle cx="512.8707763077814" cy="549.1185556519166" r="5.5" fill="#c9791a" stroke="none"/>
<circle cx="595.2152140409913" cy="329.1521448573651" r="5.5" fill="#2d8f5b" stroke="none"/>
<circle cx="965.5974296163565" cy="478.13788309529514" r="5.5" fill="#c9791a" stroke="none"/>
<circle cx="437.3237747844216" cy="573.720240440537" r="5.5" fill="#c9791a" stroke="none"/>
<circle cx="519.4397636096935" cy="391.12188416246374" r="5.5" fill="#2d8f5b" stroke="none"/>
<circle cx="636.9362792788648" cy="558.9590062772842" r="5.5" fill="#c9791a" stroke="none"/>
<circle cx="393.67465032284645" cy="391.8718311926715" r="5.5" fill="#2d8f5b" stroke="none"/>
<circle cx="776.2284536002854" cy="515.6276358876188" r="5.5" fill="#c9791a" stroke="none"/>
<circle cx="713.1339056626309" cy="537.1202758764368" r="5.5" fill="#c9791a" stroke="none"/>
<circle cx="394.767281622641" cy="435.4410989508066" r="5.5" fill="#2d8f5b" stroke="none"/>
<circle cx="425.8796065778513" cy="591.0347956159784" r="5.5" fill="#c9791a" stroke="none"/>
<circle cx="640.5603264492622" cy="470.9771471284228" r="5.5" fill="#c9791a" stroke="none"/>
<circle cx="643.495196571635" cy="574.9186322191348" r="5.5" fill="#c9791a" stroke="none"/>
<circle cx="451.2494864725051" cy="652.0689655172414" r="5.5" fill="#c9791a" stroke="none"/>
<circle cx="429.80757303436167" cy="497.5104244956081" r="5.5" fill="#2d8f5b" stroke="none"/>
<circle cx="656.6576726599847" cy="423.53302928934755" r="5.5" fill="#c9791a" stroke="none"/>
<circle cx="880.3061555087028" cy="517.8518132209668" r="5.5" fill="#c9791a" stroke="none"/>
<circle cx="530.2947026314528" cy="504.4771290170876" r="5.5" fill="#c9791a" stroke="none"/>
<circle cx="275.00698720397986" cy="483.021076649782" r="5.5" fill="#2d8f5b" stroke="none"/>
<circle cx="295.34498339601737" cy="630.1687304847479" r="5.5" fill="#c9791a" stroke="none"/>
<circle cx="439.4367718121042" cy="507.7525632301567" r="5.5" fill="#2d8f5b" stroke="none"/>
<circle cx="547.0478424924237" cy="408.1528305138693" r="5.5" fill="#2d8f5b" stroke="none"/>
<circle cx="417.50054405877074" cy="574.1948901648216" r="5.5" fill="#c9791a" stroke="none"/>
<circle cx="534.8470725531724" cy="295.6302388739158" r="5.5" fill="#2d8f5b" stroke="none"/>
<circle cx="394.0647215675284" cy="432.80159939148757" r="5.5" fill="#2d8f5b" stroke="none"/>
<circle cx="445.20687224097964" cy="521.7284618447627" r="5.5" fill="#2d8f5b" stroke="none"/>
<circle cx="486.69409625593914" cy="591.8582678951877" r="5.5" fill="#c9791a" stroke="none"/>
<circle cx="603.2816522037638" cy="491.4057538929454" r="5.5" fill="#c9791a" stroke="none"/>
<circle cx="426.4315722428959" cy="502.1862414369304" r="5.5" fill="#2d8f5b" stroke="none"/>
<circle cx="638.3786093240049" cy="409.72095146687644" r="5.5" fill="#c9791a" stroke="none"/>
<circle cx="494.259606052351" cy="545.3324435524289" r="5.5" fill="#c9791a" stroke="none"/>
<circle cx="515.1594999673391" cy="524.9121472667326" r="5.5" fill="#c9791a" stroke="none"/>
<circle cx="475.0475200210989" cy="574.8305589388881" r="5.5" fill="#c9791a" stroke="none"/>
<circle cx="564.7813549104501" cy="628.5794960942501" r="5.5" fill="#c9791a" stroke="none"/>
<text x="1005.923359216604" y="563.5621789738642" font-family="Helvetica, Arial, sans-serif" font-size="12" font-weight="400" fill="#243040" text-anchor="start">DVN</text>
<text x="975.5974296163565" y="496.13788309529514" font-family="Helvetica, Arial, sans-serif" font-size="12" font-weight="400" fill="#243040" text-anchor="start">ARLP</text>
<text x="870.3061555087028" y="507.85181322096685" font-family="Helvetica, Arial, sans-serif" font-size="12" font-weight="400" fill="#243040" text-anchor="end">MGY</text>
<text x="660.7775651064262" y="643.7122190049188" font-family="Helvetica, Arial, sans-serif" font-size="12" font-weight="400" fill="#243040" text-anchor="end">VC</text>
<text x="345.6913966496887" y="360.08830414752117" font-family="Helvetica, Arial, sans-serif" font-size="12" font-weight="400" fill="#243040" text-anchor="start">NFLX</text>
<text x="788.2284536002854" y="535.6276358876188" font-family="Helvetica, Arial, sans-serif" font-size="12" font-weight="400" fill="#243040" text-anchor="start">CPRX</text>
<text x="552.7813549104501" y="614.5794960942501" font-family="Helvetica, Arial, sans-serif" font-size="12" font-weight="400" fill="#243040" text-anchor="end">UPS</text>
<text x="701.1339056626309" y="557.1202758764368" font-family="Helvetica, Arial, sans-serif" font-size="12" font-weight="400" fill="#243040" text-anchor="end">EOG</text>
<text x="622.5" y="778" font-family="Helvetica, Arial, sans-serif" font-size="14" font-weight="400" fill="#243040" text-anchor="middle">First-period annualized stock growth (CAGR)</text>
<circle cx="175" cy="744" r="5.5" fill="#2d8f5b" stroke="none"/>
<text x="189" y="749" font-family="Helvetica, Arial, sans-serif" font-size="13" font-weight="400" fill="#243040" text-anchor="start">Improved versus first period</text>
<circle cx="425" cy="744" r="5.5" fill="#c9791a" stroke="none"/>
<text x="439" y="749" font-family="Helvetica, Arial, sans-serif" font-size="13" font-weight="400" fill="#243040" text-anchor="start">Deteriorated versus first period</text>
</svg>