<svg xmlns="http://www.w3.org/2000/svg" width="1320" height="940" viewBox="0 0 1320 940">
<rect x="0" y="0" width="1320" height="940" fill="#ffffff"/>
<text x="60" y="42" font-family="Helvetica, Arial, sans-serif" font-size="28" font-weight="700" fill="#243040" text-anchor="start">Figure 2. Equal-Weight vs. HW4 GMV Portfolio</text>
<text x="60" y="72" font-family="Helvetica, Arial, sans-serif" font-size="14" font-weight="400" fill="#6b7280" text-anchor="start">Second 3-year evaluation window. Green means &#x27;more&#x27; and orange means &#x27;more defensive / lower&#x27;.</text>
<rect x="60" y="110" width="540" height="740" fill="#edf2f7" stroke="none" rx="18"/>
<rect x="640" y="110" width="620" height="740" fill="#edf2f7" stroke="none" rx="18"/>
<text x="90" y="145" font-family="Helvetica, Arial, sans-serif" font-size="20" font-weight="700" fill="#243040" text-anchor="start">Performance</text>
<text x="670" y="145" font-family="Helvetica, Arial, sans-serif" font-size="20" font-weight="700" fill="#243040" text-anchor="start">Risk, Exposure, and Implementation</text>
<text x="90" y="190" font-family="Helvetica, Arial, sans-serif" font-size="14" font-weight="700" fill="#243040" text-anchor="start">Cumulative Return</text>
<rect x="90" y="210" width="380" height="22" fill="#ffffff" stroke="#d7dde5" rx="8"/>
<rect x="90" y="210" width="380.00000000000006" height="22" fill="#2d8f5b" stroke="none" rx="8"/>
<rect x="90" y="246" width="380" height="22" fill="#ffffff" stroke="#d7dde5" rx="8"/>
<rect x="90" y="246" width="241.7748016700381" height="22" fill="#c9791a" stroke="none" rx="8"/>
<text x="486" y="226" font-family="Helvetica, Arial, sans-serif" font-size="13" font-weight="400" fill="#243040" text-anchor="start">EW: 75.00%</text>
<text x="486" y="262" font-family="Helvetica, Arial, sans-serif" font-size="13" font-weight="400" fill="#243040" text-anchor="start">GMV: 47.72%</text>
<text x="90" y="298" font-family="Helvetica, Arial, sans-serif" font-size="12" font-weight="400" fill="#6b7280" text-anchor="start">Preferred on this metric: Equal Weight</text>
<text x="90" y="322" font-family="Helvetica, Arial, sans-serif" font-size="14" font-weight="700" fill="#243040" text-anchor="start">Annualized Return</text>
<rect x="90" y="342" width="380" height="22" fill="#ffffff" stroke="#d7dde5" rx="8"/>
<rect x="90" y="342" width="380.0" height="22" fill="#2d8f5b" stroke="none" rx="8"/>
<rect x="90" y="378" width="380" height="22" fill="#ffffff" stroke="#d7dde5" rx="8"/>
<rect x="90" y="378" width="266.01471485551815" height="22" fill="#c9791a" stroke="none" rx="8"/>
<text x="486" y="358" font-family="Helvetica, Arial, sans-serif" font-size="13" font-weight="400" fill="#243040" text-anchor="start">EW: 19.78%</text>
<text x="486" y="394" font-family="Helvetica, Arial, sans-serif" font-size="13" font-weight="400" fill="#243040" text-anchor="start">GMV: 13.85%</text>
<text x="90" y="430" font-family="Helvetica, Arial, sans-serif" font-size="12" font-weight="400" fill="#6b7280" text-anchor="start">Preferred on this metric: Equal Weight</text>
<text x="90" y="454" font-family="Helvetica, Arial, sans-serif" font-size="14" font-weight="700" fill="#243040" text-anchor="start">Sharpe Ratio</text>
<rect x="90" y="474" width="380" height="22" fill="#ffffff" stroke="#d7dde5" rx="8"/>
<rect x="90" y="474" width="380.0" height="22" fill="#2d8f5b" stroke="none" rx="8"/>
<rect x="90" y="510" width="380" height="22" fill="#ffffff" stroke="#d7dde5" rx="8"/>
<rect x="90" y="510" width="306.36131414933806" height="22" fill="#c9791a" stroke="none" rx="8"/>
<text x="486" y="490" font-family="Helvetica, Arial, sans-serif" font-size="13" font-weight="400" fill="#243040" text-anchor="start">EW: 1.3964</text>
<text x="486" y="526" font-family="Helvetica, Arial, sans-serif" font-size="13" font-weight="400" fill="#243040" text-anchor="start">GMV: 1.1258</text>
<text x="90" y="562" font-family="Helvetica, Arial, sans-serif" font-size="12" font-weight="400" fill="#6b7280" text-anchor="start">Preferred on this metric: Equal Weight</text>
<text x="90" y="586" font-family="Helvetica, Arial, sans-serif" font-size="14" font-weight="700" fill="#243040" text-anchor="start">CAGR</text>
<rect x="90" y="606" width="380" height="22" fill="#ffffff" stroke="#d7dde5" rx="8"/>
<rect x="90" y="606" width="380.0" height="22" fill="#2d8f5b" stroke="none" rx="8"/>
<rect x="90" y="642" width="380" height="22" fill="#ffffff" stroke="#d7dde5" rx="8"/>
<rect x="90" y="642" width="257.29843773015466" height="22" fill="#c9791a" stroke="none" rx="8"/>
<text x="486" y="622" font-family="Helvetica, Arial, sans-serif" font-size="13" font-weight="400" fill="#243040" text-anchor="start">EW: 20.66%</text>
<text x="486" y="658" font-family="Helvetica, Arial, sans-serif" font-size="13" font-weight="400" fill="#243040" text-anchor="start">GMV: 13.99%</text>
<text x="90" y="694" font-family="Helvetica, Arial, sans-serif" font-size="12" font-weight="400" fill="#6b7280" text-anchor="start">Preferred on this metric: Equal Weight</text>
<text x="670" y="190" font-family="Helvetica, Arial, sans-serif" font-size="14" font-weight="700" fill="#243040" text-anchor="start">Annualized Volatility</text>
<rect x="670" y="210" width="360" height="22" fill="#ffffff" stroke="#d7dde5" rx="8"/>
<rect x="670" y="210" width="360.0" height="22" fill="#2d8f5b" stroke="none" rx="8"/>
<rect x="670" y="246" width="360" height="22" fill="#ffffff" stroke="#d7dde5" rx="8"/>
<rect x="670" y="246" width="312.5893933896139" height="22" fill="#c9791a" stroke="none" rx="8"/>
<text x="1046" y="226" font-family="Helvetica, Arial, sans-serif" font-size="13" font-weight="400" fill="#243040" text-anchor="start">EW: 14.17%</text>
<text x="1046" y="262" font-family="Helvetica, Arial, sans-serif" font-size="13" font-weight="400" fill="#243040" text-anchor="start">GMV: 12.30%</text>
<text x="670" y="298" font-family="Helvetica, Arial, sans-serif" font-size="12" font-weight="400" fill="#6b7280" text-anchor="start">Preferred on this metric: HW4 GMV</text>
<text x="670" y="322" font-family="Helvetica, Arial, sans-serif" font-size="14" font-weight="700" fill="#243040" text-anchor="start">Max Drawdown Magnitude</text>
<rect x="670" y="342" width="360" height="22" fill="#ffffff" stroke="#d7dde5" rx="8"/>
<rect x="670" y="342" width="360.0" height="22" fill="#2d8f5b" stroke="none" rx="8"/>
<rect x="670" y="378" width="360" height="22" fill="#ffffff" stroke="#d7dde5" rx="8"/>
<rect x="670" y="378" width="235.34229672573102" height="22" fill="#c9791a" stroke="none" rx="8"/>
<text x="1046" y="358" font-family="Helvetica, Arial, sans-serif" font-size="13" font-weight="400" fill="#243040" text-anchor="start">EW: 18.95%</text>
<text x="1046" y="394" font-family="Helvetica, Arial, sans-serif" font-size="13" font-weight="400" fill="#243040" text-anchor="start">GMV: 12.39%</text>
<text x="670" y="430" font-family="Helvetica, Arial, sans-serif" font-size="12" font-weight="400" fill="#6b7280" text-anchor="start">Preferred on this metric: HW4 GMV</text>
<text x="670" y="454" font-family="Helvetica, Arial, sans-serif" font-size="14" font-weight="700" fill="#243040" text-anchor="start">Beta to SPY</text>
<rect x="670" y="474" width="360" height="22" fill="#ffffff" stroke="#d7dde5" rx="8"/>
<rect x="670" y="474" width="360.0" height="22" fill="#2d8f5b" stroke="none" rx="8"/>
<rect x="670" y="510" width="360" height="22" fill="#ffffff" stroke="#d7dde5" rx="8"/>
<rect x="670" y="510" width="143.37961542022913" height="22" fill="#c9791a" stroke="none" rx="8"/>
<text x="1046" y="490" font-family="Helvetica, Arial, sans-serif" font-size="13" font-weight="400" fill="#243040" text-anchor="start">EW: 0.8459</text>
<text x="1046" y="526" font-family="Helvetica, Arial, sans-serif" font-size="13" font-weight="400" fill="#243040" text-anchor="start">GMV: 0.3369</text>
<text x="670" y="562" font-family="Helvetica, Arial, sans-serif" font-size="12" font-weight="400" fill="#6b7280" text-anchor="start">Preferred on this metric: HW4 GMV</text>
<text x="670" y="586" font-family="Helvetica, Arial, sans-serif" font-size="14" font-weight="700" fill="#243040" text-anchor="start">Annualized Turnover</text>
<rect x="670" y="606" width="360" height="22" fill="#ffffff" stroke="#d7dde5" rx="8"/>
<rect x="670" y="606" width="360.0" height="22" fill="#2d8f5b" stroke="none" rx="8"/>
<rect x="670" y="642" width="360" height="22" fill="#ffffff" stroke="#d7dde5" rx="8"/>
<rect x="670" y="642" width="0.0" height="22" fill="#c9791a" stroke="none" rx="8"/>
<text x="1046" y="622" font-family="Helvetica, Arial, sans-serif" font-size="13" font-weight="400" fill="#243040" text-anchor="start">EW: 161.95%</text>
<text x="1046" y="658" font-family="Helvetica, Arial, sans-serif" font-size="13" font-weight="400" fill="#243040" text-anchor="start">GMV: 0.00%</text>
<text x="670" y="694" font-family="Helvetica, Arial, sans-serif" font-size="12" font-weight="400" fill="#6b7280" text-anchor="start">Preferred on this metric: HW4 GMV</text>
<text x="670" y="718" font-family="Helvetica, Arial, sans-serif" font-size="14" font-weight="700" fill="#243040" text-anchor="start">Top-5 Weight Sum</text>
<rect x="670" y="738" width="360" height="22" fill="#ffffff" stroke="#d7dde5" rx="8"/>
<rect x="670" y="738" width="48.42316191256088" height="22" fill="#2d8f5b" stroke="none" rx="8"/>
<rect x="670" y="774" width="360" height="22" fill="#ffffff" stroke="#d7dde5" rx="8"/>
<rect x="670" y="774" width="360.0" height="22" fill="#c9791a" stroke="none" rx="8"/>
<text x="1046" y="754" font-family="Helvetica, Arial, sans-serif" font-size="13" font-weight="400" fill="#243040" text-anchor="start">EW: 10.00%</text>
<text x="1046" y="790" font-family="Helvetica, Arial, sans-serif" font-size="13" font-weight="400" fill="#243040" text-anchor="start">GMV: 74.34%</text>
<text x="670" y="826" font-family="Helvetica, Arial, sans-serif" font-size="12" font-weight="400" fill="#6b7280" text-anchor="start">Preferred on this metric: Equal Weight</text>
<text x="90" y="826" font-family="Helvetica, Arial, sans-serif" font-size="13" font-weight="400" fill="#6b7280" text-anchor="start">Green bars: daily rebalanced 50-stock equal-weight portfolio</text>
<text x="90" y="850" font-family="Helvetica, Arial, sans-serif" font-size="13" font-weight="400" fill="#6b7280" text-anchor="start">Orange bars: fixed-weight HW4 global minimum-variance portfolio</text>
</svg>