<svg xmlns="http://www.w3.org/2000/svg" width="1320" height="1120" viewBox="0 0 1320 1120">
<rect x="0" y="0" width="1320" height="1120" fill="#ffffff"/>
<text x="60" y="42" font-family="Helvetica, Arial, sans-serif" font-size="28" font-weight="700" fill="#243040" text-anchor="start">Figure 2. Equal-Weight vs. HW4 GMV Portfolio</text>
<text x="60" y="72" font-family="Helvetica, Arial, sans-serif" font-size="14" font-weight="400" fill="#6b7280" text-anchor="start">Second 3-year evaluation window. Green means &#x27;more&#x27; and orange means &#x27;more defensive / lower&#x27;.</text>
<rect x="60" y="110" width="540" height="920" fill="#edf2f7" stroke="none" rx="18"/>
<rect x="640" y="110" width="620" height="920" fill="#edf2f7" stroke="none" rx="18"/>
<text x="90" y="145" font-family="Helvetica, Arial, sans-serif" font-size="20" font-weight="700" fill="#243040" text-anchor="start">Performance</text>
<text x="670" y="145" font-family="Helvetica, Arial, sans-serif" font-size="19" font-weight="700" fill="#243040" text-anchor="start">Risk, Exposure, and Implementation</text>
<text x="90" y="190" font-family="Helvetica, Arial, sans-serif" font-size="14" font-weight="700" fill="#243040" text-anchor="start">Cumulative Return</text>
<rect x="90" y="218" width="380" height="24" fill="#ffffff" stroke="#d7dde5" rx="8"/>
<rect x="90" y="218" width="380.00000000000006" height="24" fill="#2d8f5b" stroke="none" rx="8"/>
<rect x="90" y="262" width="380" height="24" fill="#ffffff" stroke="#d7dde5" rx="8"/>
<rect x="90" y="262" width="241.7748016700381" height="24" fill="#c9791a" stroke="none" rx="8"/>
<text x="486" y="235" font-family="Helvetica, Arial, sans-serif" font-size="13" font-weight="400" fill="#243040" text-anchor="start">EW: 75.00%</text>
<text x="486" y="279" font-family="Helvetica, Arial, sans-serif" font-size="13" font-weight="400" fill="#243040" text-anchor="start">GMV: 47.72%</text>
<text x="90" y="320" font-family="Helvetica, Arial, sans-serif" font-size="12" font-weight="400" fill="#6b7280" text-anchor="start">Preferred: Equal Weight</text>
<text x="90" y="362" font-family="Helvetica, Arial, sans-serif" font-size="14" font-weight="700" fill="#243040" text-anchor="start">Annualized Return</text>
<rect x="90" y="390" width="380" height="24" fill="#ffffff" stroke="#d7dde5" rx="8"/>
<rect x="90" y="390" width="380.0" height="24" fill="#2d8f5b" stroke="none" rx="8"/>
<rect x="90" y="434" width="380" height="24" fill="#ffffff" stroke="#d7dde5" rx="8"/>
<rect x="90" y="434" width="266.01471485551815" height="24" fill="#c9791a" stroke="none" rx="8"/>
<text x="486" y="407" font-family="Helvetica, Arial, sans-serif" font-size="13" font-weight="400" fill="#243040" text-anchor="start">EW: 19.78%</text>
<text x="486" y="451" font-family="Helvetica, Arial, sans-serif" font-size="13" font-weight="400" fill="#243040" text-anchor="start">GMV: 13.85%</text>
<text x="90" y="492" font-family="Helvetica, Arial, sans-serif" font-size="12" font-weight="400" fill="#6b7280" text-anchor="start">Preferred: Equal Weight</text>
<text x="90" y="534" font-family="Helvetica, Arial, sans-serif" font-size="14" font-weight="700" fill="#243040" text-anchor="start">Sharpe Ratio</text>
<rect x="90" y="562" width="380" height="24" fill="#ffffff" stroke="#d7dde5" rx="8"/>
<rect x="90" y="562" width="380.0" height="24" fill="#2d8f5b" stroke="none" rx="8"/>
<rect x="90" y="606" width="380" height="24" fill="#ffffff" stroke="#d7dde5" rx="8"/>
<rect x="90" y="606" width="306.36131414933806" height="24" fill="#c9791a" stroke="none" rx="8"/>
<text x="486" y="579" font-family="Helvetica, Arial, sans-serif" font-size="13" font-weight="400" fill="#243040" text-anchor="start">EW: 1.3964</text>
<text x="486" y="623" font-family="Helvetica, Arial, sans-serif" font-size="13" font-weight="400" fill="#243040" text-anchor="start">GMV: 1.1258</text>
<text x="90" y="664" font-family="Helvetica, Arial, sans-serif" font-size="12" font-weight="400" fill="#6b7280" text-anchor="start">Preferred: Equal Weight</text>
<text x="90" y="706" font-family="Helvetica, Arial, sans-serif" font-size="14" font-weight="700" fill="#243040" text-anchor="start">CAGR</text>
<rect x="90" y="734" width="380" height="24" fill="#ffffff" stroke="#d7dde5" rx="8"/>
<rect x="90" y="734" width="380.0" height="24" fill="#2d8f5b" stroke="none" rx="8"/>
<rect x="90" y="778" width="380" height="24" fill="#ffffff" stroke="#d7dde5" rx="8"/>
<rect x="90" y="778" width="257.29843773015466" height="24" fill="#c9791a" stroke="none" rx="8"/>
<text x="486" y="751" font-family="Helvetica, Arial, sans-serif" font-size="13" font-weight="400" fill="#243040" text-anchor="start">EW: 20.66%</text>
<text x="486" y="795" font-family="Helvetica, Arial, sans-serif" font-size="13" font-weight="400" fill="#243040" text-anchor="start">GMV: 13.99%</text>
<text x="90" y="836" font-family="Helvetica, Arial, sans-serif" font-size="12" font-weight="400" fill="#6b7280" text-anchor="start">Preferred: Equal Weight</text>
<text x="670" y="190" font-family="Helvetica, Arial, sans-serif" font-size="14" font-weight="700" fill="#243040" text-anchor="start">Annualized Volatility</text>
<rect x="670" y="218" width="360" height="24" fill="#ffffff" stroke="#d7dde5" rx="8"/>
<rect x="670" y="218" width="360.0" height="24" fill="#2d8f5b" stroke="none" rx="8"/>
<rect x="670" y="262" width="360" height="24" fill="#ffffff" stroke="#d7dde5" rx="8"/>
<rect x="670" y="262" width="312.5893933896139" height="24" fill="#c9791a" stroke="none" rx="8"/>
<text x="1046" y="235" font-family="Helvetica, Arial, sans-serif" font-size="13" font-weight="400" fill="#243040" text-anchor="start">EW: 14.17%</text>
<text x="1046" y="279" font-family="Helvetica, Arial, sans-serif" font-size="13" font-weight="400" fill="#243040" text-anchor="start">GMV: 12.30%</text>
<text x="670" y="320" font-family="Helvetica, Arial, sans-serif" font-size="12" font-weight="400" fill="#6b7280" text-anchor="start">Preferred: HW4 GMV</text>
<text x="670" y="362" font-family="Helvetica, Arial, sans-serif" font-size="14" font-weight="700" fill="#243040" text-anchor="start">Max Drawdown Magnitude</text>
<rect x="670" y="390" width="360" height="24" fill="#ffffff" stroke="#d7dde5" rx="8"/>
<rect x="670" y="390" width="360.0" height="24" fill="#2d8f5b" stroke="none" rx="8"/>
<rect x="670" y="434" width="360" height="24" fill="#ffffff" stroke="#d7dde5" rx="8"/>
<rect x="670" y="434" width="235.34229672573102" height="24" fill="#c9791a" stroke="none" rx="8"/>
<text x="1046" y="407" font-family="Helvetica, Arial, sans-serif" font-size="13" font-weight="400" fill="#243040" text-anchor="start">EW: 18.95%</text>
<text x="1046" y="451" font-family="Helvetica, Arial, sans-serif" font-size="13" font-weight="400" fill="#243040" text-anchor="start">GMV: 12.39%</text>
<text x="670" y="492" font-family="Helvetica, Arial, sans-serif" font-size="12" font-weight="400" fill="#6b7280" text-anchor="start">Preferred: HW4 GMV</text>
<text x="670" y="534" font-family="Helvetica, Arial, sans-serif" font-size="14" font-weight="700" fill="#243040" text-anchor="start">Beta to SPY</text>
<rect x="670" y="562" width="360" height="24" fill="#ffffff" stroke="#d7dde5" rx="8"/>
<rect x="670" y="562" width="360.0" height="24" fill="#2d8f5b" stroke="none" rx="8"/>
<rect x="670" y="606" width="360" height="24" fill="#ffffff" stroke="#d7dde5" rx="8"/>
<rect x="670" y="606" width="143.37961542022913" height="24" fill="#c9791a" stroke="none" rx="8"/>
<text x="1046" y="579" font-family="Helvetica, Arial, sans-serif" font-size="13" font-weight="400" fill="#243040" text-anchor="start">EW: 0.8459</text>
<text x="1046" y="623" font-family="Helvetica, Arial, sans-serif" font-size="13" font-weight="400" fill="#243040" text-anchor="start">GMV: 0.3369</text>
<text x="670" y="664" font-family="Helvetica, Arial, sans-serif" font-size="12" font-weight="400" fill="#6b7280" text-anchor="start">Preferred: HW4 GMV</text>
<text x="670" y="706" font-family="Helvetica, Arial, sans-serif" font-size="14" font-weight="700" fill="#243040" text-anchor="start">Annualized Turnover</text>
<rect x="670" y="734" width="360" height="24" fill="#ffffff" stroke="#d7dde5" rx="8"/>
<rect x="670" y="734" width="360.0" height="24" fill="#2d8f5b" stroke="none" rx="8"/>
<rect x="670" y="778" width="360" height="24" fill="#ffffff" stroke="#d7dde5" rx="8"/>
<rect x="670" y="778" width="0.0" height="24" fill="#c9791a" stroke="none" rx="8"/>
<text x="1046" y="751" font-family="Helvetica, Arial, sans-serif" font-size="13" font-weight="400" fill="#243040" text-anchor="start">EW: 161.95%</text>
<text x="1046" y="795" font-family="Helvetica, Arial, sans-serif" font-size="13" font-weight="400" fill="#243040" text-anchor="start">GMV: 0.00%</text>
<text x="670" y="836" font-family="Helvetica, Arial, sans-serif" font-size="12" font-weight="400" fill="#6b7280" text-anchor="start">Preferred: HW4 GMV</text>
<text x="670" y="878" font-family="Helvetica, Arial, sans-serif" font-size="14" font-weight="700" fill="#243040" text-anchor="start">Top-5 Weight Sum</text>
<rect x="670" y="906" width="360" height="24" fill="#ffffff" stroke="#d7dde5" rx="8"/>
<rect x="670" y="906" width="48.42316191256088" height="24" fill="#2d8f5b" stroke="none" rx="8"/>
<rect x="670" y="950" width="360" height="24" fill="#ffffff" stroke="#d7dde5" rx="8"/>
<rect x="670" y="950" width="360.0" height="24" fill="#c9791a" stroke="none" rx="8"/>
<text x="1046" y="923" font-family="Helvetica, Arial, sans-serif" font-size="13" font-weight="400" fill="#243040" text-anchor="start">EW: 10.00%</text>
<text x="1046" y="967" font-family="Helvetica, Arial, sans-serif" font-size="13" font-weight="400" fill="#243040" text-anchor="start">GMV: 74.34%</text>
<text x="670" y="1008" font-family="Helvetica, Arial, sans-serif" font-size="12" font-weight="400" fill="#6b7280" text-anchor="start">Preferred: Equal Weight</text>
<text x="90" y="990" font-family="Helvetica, Arial, sans-serif" font-size="13" font-weight="400" fill="#6b7280" text-anchor="start">Green bars: daily rebalanced 50-stock equal-weight portfolio</text>
<text x="90" y="1014" font-family="Helvetica, Arial, sans-serif" font-size="13" font-weight="400" fill="#6b7280" text-anchor="start">Orange bars: fixed-weight HW4 global minimum-variance portfolio</text>
</svg>