<svg xmlns="http://www.w3.org/2000/svg" width="1100" height="760" viewBox="0 0 1100 760">
<rect x="0" y="0" width="1100" height="760" fill="#ffffff"/>
<text x="110" y="42" font-family="Helvetica, Arial, sans-serif" font-size="28" font-weight="700" fill="#243040" text-anchor="start">Figure 1. Growth-Rate Stability Across the Two 3-Year Windows</text>
<text x="110" y="72" font-family="Helvetica, Arial, sans-serif" font-size="14" font-weight="400" fill="#6b7280" text-anchor="start">Each dot is one stock. The dashed diagonal is the line of perfect stability.</text>
<line x1="110" y1="650.0" x2="1030" y2="650.0" stroke="#d7dde5" stroke-width="1"/>
<line x1="110.0" y1="110" x2="110.0" y2="650" stroke="#d7dde5" stroke-width="1"/>
<text x="96" y="655.0" font-family="Helvetica, Arial, sans-serif" font-size="12" font-weight="400" fill="#6b7280" text-anchor="end">-29.18%</text>
<text x="110.0" y="678" font-family="Helvetica, Arial, sans-serif" font-size="12" font-weight="400" fill="#6b7280" text-anchor="middle">-29.18%</text>
<line x1="110" y1="515.0" x2="1030" y2="515.0" stroke="#d7dde5" stroke-width="1"/>
<line x1="340.0" y1="110" x2="340.0" y2="650" stroke="#d7dde5" stroke-width="1"/>
<text x="96" y="520.0" font-family="Helvetica, Arial, sans-serif" font-size="12" font-weight="400" fill="#6b7280" text-anchor="end">3.70%</text>
<text x="340.0" y="678" font-family="Helvetica, Arial, sans-serif" font-size="12" font-weight="400" fill="#6b7280" text-anchor="middle">3.70%</text>
<line x1="110" y1="380.0" x2="1030" y2="380.0" stroke="#d7dde5" stroke-width="1"/>
<line x1="570.0" y1="110" x2="570.0" y2="650" stroke="#d7dde5" stroke-width="1"/>
<text x="96" y="385.0" font-family="Helvetica, Arial, sans-serif" font-size="12" font-weight="400" fill="#6b7280" text-anchor="end">36.58%</text>
<text x="570.0" y="678" font-family="Helvetica, Arial, sans-serif" font-size="12" font-weight="400" fill="#6b7280" text-anchor="middle">36.58%</text>
<line x1="110" y1="245.0" x2="1030" y2="245.0" stroke="#d7dde5" stroke-width="1"/>
<line x1="800.0" y1="110" x2="800.0" y2="650" stroke="#d7dde5" stroke-width="1"/>
<text x="96" y="250.0" font-family="Helvetica, Arial, sans-serif" font-size="12" font-weight="400" fill="#6b7280" text-anchor="end">69.46%</text>
<text x="800.0" y="678" font-family="Helvetica, Arial, sans-serif" font-size="12" font-weight="400" fill="#6b7280" text-anchor="middle">69.46%</text>
<line x1="110" y1="110.0" x2="1030" y2="110.0" stroke="#d7dde5" stroke-width="1"/>
<line x1="1030.0" y1="110" x2="1030.0" y2="650" stroke="#d7dde5" stroke-width="1"/>
<text x="96" y="115.0" font-family="Helvetica, Arial, sans-serif" font-size="12" font-weight="400" fill="#6b7280" text-anchor="end">102.34%</text>
<text x="1030.0" y="678" font-family="Helvetica, Arial, sans-serif" font-size="12" font-weight="400" fill="#6b7280" text-anchor="middle">102.34%</text>
<line x1="110" y1="650" x2="1030" y2="110" stroke="#5f6975" stroke-width="2" stroke-dasharray="6 6"/>
<line x1="110" y1="110" x2="110" y2="650" stroke="#5f6975" stroke-width="1.5"/>
<line x1="110" y1="650" x2="1030" y2="650" stroke="#5f6975" stroke-width="1.5"/>
<circle cx="290.49733985732917" cy="387.176851596728" r="5.5" fill="#2d8f5b" stroke="none"/>
<circle cx="348.295470703825" cy="593.0769888965237" r="5.5" fill="#c9791a" stroke="none"/>
<circle cx="597.8164749830867" cy="451.29069523909396" r="5.5" fill="#c9791a" stroke="none"/>
<circle cx="953.8541793064531" cy="535.6792302652484" r="5.5" fill="#c9791a" stroke="none"/>
<circle cx="337.5699381823571" cy="471.34054237913296" r="5.5" fill="#2d8f5b" stroke="none"/>
<circle cx="415.47813156563535" cy="458.0058778585858" r="5.5" fill="#2d8f5b" stroke="none"/>
<circle cx="645.2324173139593" cy="479.60218589186945" r="5.5" fill="#c9791a" stroke="none"/>
<circle cx="454.29420966709574" cy="345.48756254197" r="5.5" fill="#2d8f5b" stroke="none"/>
<circle cx="274.6258737334229" cy="492.47934444726053" r="5.5" fill="#2d8f5b" stroke="none"/>
<circle cx="363.01965270201845" cy="349.4213025670097" r="5.5" fill="#2d8f5b" stroke="none"/>
<circle cx="294.9081141321625" cy="373.76732696824564" r="5.5" fill="#2d8f5b" stroke="none"/>
<circle cx="273.12411722649574" cy="339.83215316302085" r="5.5" fill="#2d8f5b" stroke="none"/>
<circle cx="720.012228708814" cy="147.24137931034477" r="5.5" fill="#2d8f5b" stroke="none"/>
<circle cx="394.49891069047646" cy="562.9640638428135" r="5.5" fill="#c9791a" stroke="none"/>
<circle cx="619.6261004445945" cy="586.881087750284" r="5.5" fill="#c9791a" stroke="none"/>
<circle cx="457.30850748956294" cy="511.6800364582454" r="5.5" fill="#c9791a" stroke="none"/>
<circle cx="541.9530691818011" cy="295.71301495086755" r="5.5" fill="#2d8f5b" stroke="none"/>
<circle cx="922.6811567006123" cy="441.9899215844716" r="5.5" fill="#c9791a" stroke="none"/>
<circle cx="379.6512545270032" cy="535.8344178870727" r="5.5" fill="#c9791a" stroke="none"/>
<circle cx="464.06098605689164" cy="356.55603172314625" r="5.5" fill="#2d8f5b" stroke="none"/>
<circle cx="584.8395273034141" cy="521.3415697995154" r="5.5" fill="#c9791a" stroke="none"/>
<circle cx="334.7828807787919" cy="357.29234335280466" r="5.5" fill="#2d8f5b" stroke="none"/>
<circle cx="728.0225444829749" cy="478.79804250784395" r="5.5" fill="#c9791a" stroke="none"/>
<circle cx="663.1655790051624" cy="499.8999072241381" r="5.5" fill="#c9791a" stroke="none"/>
<circle cx="335.90603250595507" cy="400.06944260624647" r="5.5" fill="#2d8f5b" stroke="none"/>
<circle cx="367.8874168174561" cy="552.8341629684152" r="5.5" fill="#c9791a" stroke="none"/>
<circle cx="588.5648048416997" cy="434.95938081699694" r="5.5" fill="#c9791a" stroke="none"/>
<circle cx="591.5816545764294" cy="537.0110207242415" r="5.5" fill="#c9791a" stroke="none"/>
<circle cx="393.9659525750891" cy="612.7586206896551" r="5.5" fill="#c9791a" stroke="none"/>
<circle cx="371.9251030073886" cy="461.0102349593243" r="5.5" fill="#2d8f5b" stroke="none"/>
<circle cx="605.1117975946212" cy="388.3778833022685" r="5.5" fill="#c9791a" stroke="none"/>
<circle cx="835.0074447687224" cy="480.98178025331293" r="5.5" fill="#c9791a" stroke="none"/>
<circle cx="475.21913566585096" cy="467.85027212586783" r="5.5" fill="#c9791a" stroke="none"/>
<circle cx="212.80047846666085" cy="446.78432980160414" r="5.5" fill="#2d8f5b" stroke="none"/>
<circle cx="233.70657511098995" cy="591.2565717486616" r="5.5" fill="#c9791a" stroke="none"/>
<circle cx="381.82327381802895" cy="471.0661529896083" r="5.5" fill="#2d8f5b" stroke="none"/>
<circle cx="492.4402403274076" cy="373.27732450452623" r="5.5" fill="#2d8f5b" stroke="none"/>
<circle cx="359.2743022727029" cy="536.3004376163702" r="5.5" fill="#c9791a" stroke="none"/>
<circle cx="479.8986667585683" cy="262.80059816711736" r="5.5" fill="#2d8f5b" stroke="none"/>
<circle cx="335.18384786829733" cy="397.47793394800595" r="5.5" fill="#2d8f5b" stroke="none"/>
<circle cx="387.75455023653774" cy="484.7879443566761" r="5.5" fill="#2d8f5b" stroke="none"/>
<circle cx="430.4006352575017" cy="553.6426630243661" r="5.5" fill="#c9791a" stroke="none"/>
<circle cx="550.244826846327" cy="455.0165583676191" r="5.5" fill="#c9791a" stroke="none"/>
<circle cx="368.45480051783716" cy="465.60103704716806" r="5.5" fill="#2d8f5b" stroke="none"/>
<circle cx="586.3221458973012" cy="374.8169341674787" r="5.5" fill="#c9791a" stroke="none"/>
<circle cx="438.1774721431988" cy="507.96276276056665" r="5.5" fill="#c9791a" stroke="none"/>
<circle cx="459.66116197760005" cy="487.91374458915567" r="5.5" fill="#c9791a" stroke="none"/>
<circle cx="418.42873566414636" cy="536.9245487763628" r="5.5" fill="#c9791a" stroke="none"/>
<circle cx="510.66910225431747" cy="589.6962325289" r="5.5" fill="#c9791a" stroke="none"/>
<text x="961.8541793064531" y="527.6792302652484" font-family="Helvetica, Arial, sans-serif" font-size="12" font-weight="400" fill="#243040" text-anchor="start">DVN</text>
<text x="930.6811567006123" y="433.9899215844716" font-family="Helvetica, Arial, sans-serif" font-size="12" font-weight="400" fill="#243040" text-anchor="start">ARLP</text>
<text x="843.0074447687224" y="472.98178025331293" font-family="Helvetica, Arial, sans-serif" font-size="12" font-weight="400" fill="#243040" text-anchor="start">MGY</text>
<text x="627.6261004445945" y="578.881087750284" font-family="Helvetica, Arial, sans-serif" font-size="12" font-weight="400" fill="#243040" text-anchor="start">VC</text>
<text x="281.12411722649574" y="331.83215316302085" font-family="Helvetica, Arial, sans-serif" font-size="12" font-weight="400" fill="#243040" text-anchor="start">NFLX</text>
<text x="736.0225444829749" y="470.79804250784395" font-family="Helvetica, Arial, sans-serif" font-size="12" font-weight="400" fill="#243040" text-anchor="start">CPRX</text>
<text x="518.6691022543175" y="581.6962325289" font-family="Helvetica, Arial, sans-serif" font-size="12" font-weight="400" fill="#243040" text-anchor="start">UPS</text>
<text x="671.1655790051624" y="491.8999072241381" font-family="Helvetica, Arial, sans-serif" font-size="12" font-weight="400" fill="#243040" text-anchor="start">EOG</text>
<text x="570.0" y="726" font-family="Helvetica, Arial, sans-serif" font-size="14" font-weight="400" fill="#243040" text-anchor="middle">First-period annualized stock growth (CAGR)</text>
<text x="28" y="380.0" font-family="Helvetica, Arial, sans-serif" font-size="14" font-weight="400" fill="#243040" text-anchor="middle">Second-period annualized stock growth (CAGR)</text>
<g transform="translate(28,380.0) rotate(-90)"></g>
<text x="28" y="380.0" font-family="Helvetica, Arial, sans-serif" font-size="14" fill="#243040" text-anchor="middle" transform="rotate(-90 28 380.0)">Second-period annualized stock growth (CAGR)</text>
<circle cx="110" cy="692" r="5.5" fill="#2d8f5b" stroke="none"/>
<text x="124" y="697" font-family="Helvetica, Arial, sans-serif" font-size="13" font-weight="400" fill="#243040" text-anchor="start">Improved versus first period</text>
<circle cx="360" cy="692" r="5.5" fill="#c9791a" stroke="none"/>
<text x="374" y="697" font-family="Helvetica, Arial, sans-serif" font-size="13" font-weight="400" fill="#243040" text-anchor="start">Deteriorated versus first period</text>
</svg>